<?xml version="1.0" encoding="UTF-8" standalone="no"?>
<!-- Created with Inkscape (http://www.inkscape.org/) -->

<svg
   xmlns:ns0="http://www.iki.fi/pav/software/textext/"
   xmlns:dc="http://purl.org/dc/elements/1.1/"
   xmlns:cc="http://creativecommons.org/ns#"
   xmlns:rdf="http://www.w3.org/1999/02/22-rdf-syntax-ns#"
   xmlns:svg="http://www.w3.org/2000/svg"
   xmlns="http://www.w3.org/2000/svg"
   xmlns:sodipodi="http://sodipodi.sourceforge.net/DTD/sodipodi-0.dtd"
   xmlns:inkscape="http://www.inkscape.org/namespaces/inkscape"
   width="792pt"
   height="612pt"
   id="svg4538"
   version="1.1"
   inkscape:version="0.91 r13725"
   sodipodi:docname="fig-esp-muestral.svg">
  <sodipodi:namedview
     inkscape:document-units="in"
     pagecolor="#ffffff"
     bordercolor="#666666"
     borderopacity="1.0"
     inkscape:pageopacity="0.0"
     inkscape:pageshadow="2"
     inkscape:zoom="0.82745098"
     inkscape:cx="317.95024"
     inkscape:cy="380.08294"
     inkscape:current-layer="layer1"
     id="namedview4542"
     showgrid="false"
     inkscape:window-width="1440"
     inkscape:window-height="849"
     inkscape:window-x="0"
     inkscape:window-y="0"
     inkscape:window-maximized="1" />
  <defs
     id="defs4540">
    <marker
       inkscape:stockid="Arrow2Mend"
       orient="auto"
       refY="0.0"
       refX="0.0"
       id="Arrow2Mend"
       style="overflow:visible;">
      <path
         id="path4141"
         style="fill-rule:evenodd;stroke-width:0.62500000;stroke-linejoin:round;"
         d="M 8.7185878,4.0337352 L -2.2072895,0.016013256 L 8.7185884,-4.0017078 C 6.9730900,-1.6296469 6.9831476,1.6157441 8.7185878,4.0337352 z "
         transform="scale(0.6) rotate(180) translate(0,0)" />
    </marker>
    <marker
       inkscape:stockid="Arrow1Send"
       orient="auto"
       refY="0.0"
       refX="0.0"
       id="Arrow1Send"
       style="overflow:visible;">
      <path
         id="path4129"
         d="M 0.0,0.0 L 5.0,-5.0 L -12.5,0.0 L 5.0,5.0 L 0.0,0.0 z "
         style="fill-rule:evenodd;stroke:#000000;stroke-width:1.0pt;"
         transform="scale(0.2) rotate(180) translate(6,0)" />
    </marker>
  </defs>
  <metadata
     id="metadata4544">
    <rdf:RDF>
      <cc:Work
         rdf:about="">
        <dc:format>image/svg+xml</dc:format>
        <dc:type
           rdf:resource="http://purl.org/dc/dcmitype/StillImage" />
        <dc:title />
      </cc:Work>
    </rdf:RDF>
  </metadata>
  <g
     inkscape:label="Layer 1"
     inkscape:groupmode="layer"
     id="layer1">
    <g
       style="stroke-width:31.60936737;stroke-miterlimit:4;stroke-dasharray:none;visibility:visible"
       id="g259"
       transform="matrix(0.03913928,0,0,0.03273598,-28.710946,62.616709)">
      <desc
         id="desc261">Drawing</desc>
      <g
         style="stroke-width:31.60936737;stroke-miterlimit:4;stroke-dasharray:none"
         id="g263">
        <g
           id="g265"
           style="fill:#ffffcc;stroke:none">
          <path
             id="path267"
             d="m 2698,6406 c -216,-1996 100,-2137 627,-2727 527,-590 383,-912 1768,-808 826,62 1922,195 2395,668 585,585 838,1199 1003,1894 189,795 250,975 -56,2451 -56,771 -390,891 -167,2312 287,1133 1098,2253 863,3398 -132,642 -574,1357 -1197,1559 -1121,364 -2699,1514 -3426,864 C 3439,15062 2235,13792 2475,12229 L 2976,8970 2698,6406 z"
             inkscape:connector-curvature="0" />
        </g>
        <g
           id="g269"
           style="fill:none;stroke:#000000;stroke-width:31.60936737;stroke-miterlimit:4;stroke-dasharray:none">
          <path
             id="path271"
             d="m 2698,6406 c -216,-1996 100,-2137 627,-2727 527,-590 383,-912 1768,-808 826,62 1922,195 2395,668 585,585 838,1199 1003,1894 189,795 250,975 -56,2451 -56,771 -390,891 -167,2312 287,1133 1098,2253 863,3398 -132,642 -574,1357 -1197,1559 -1121,364 -2699,1514 -3426,864 C 3439,15062 2235,13792 2475,12229 L 2976,8970 2698,6406"
             style="fill:none;stroke-width:31.60936737;stroke-miterlimit:4;stroke-dasharray:none"
             inkscape:connector-curvature="0" />
        </g>
        <g
           style="stroke-width:31.60936737;stroke-miterlimit:4;stroke-dasharray:none"
           id="g273" />
      </g>
    </g>
    <g
       style="visibility:visible"
       id="g323"
       transform="matrix(0.03913928,0,0,0.03995541,-22.668292,93.59724)">
      <desc
         id="desc325">OLE2</desc>
      <g
         id="g327">
        <g
           id="g329"
           style="font-size:879px;font-weight:400;font-family:Times New Roman embedded">
          <g
             id="g331"
             style="fill:none;stroke:none">
            <g
               id="g333"
               transform="matrix(1,0,-0.17632698,1,1440.4151,0)">
              <text
                 id="text335">
                <tspan
                   id="tspan337"
                   y="8169"
                   x="12862">x</tspan>
              </text>
            </g>
          </g>
        </g>
        <g
           id="g339"
           style="font-size:527px;font-weight:400;font-family:Times New Roman embedded">
          <g
             id="g341"
             style="fill:none;stroke:none">
            <text
               id="text343">
              <tspan
                 id="tspan345"
                 y="7745"
                 x="13284">1</tspan>
            </text>
          </g>
        </g>
      </g>
    </g>
    <g
       style="visibility:visible"
       id="g347"
       transform="matrix(0.03913928,0,0,0.03995541,-22.668292,21.59724)">
      <desc
         id="desc349">OLE2</desc>
      <g
         id="g351">
        <g
           id="g353"
           style="font-size:879px;font-weight:400;font-family:Times New Roman embedded">
          <g
             id="g355"
             style="fill:none;stroke:none">
            <g
               id="g357"
               transform="matrix(1,0,-0.17632698,1,1109.802,0)">
              <text
                 id="text359">
                <tspan
                   id="tspan361"
                   y="6294"
                   x="18520">x</tspan>
              </text>
            </g>
          </g>
        </g>
        <g
           id="g363"
           style="font-size:527px;font-weight:400;font-family:Times New Roman embedded">
          <g
             id="g365"
             style="fill:none;stroke:none">
            <text
               id="text367">
              <tspan
                 id="tspan369"
                 y="5871"
                 x="18963">2</tspan>
            </text>
          </g>
        </g>
      </g>
    </g>
    <g
       style="visibility:visible"
       id="g371"
       transform="matrix(0.03913928,0,0,0.03995541,-22.668292,21.59724)">
      <desc
         id="desc373">OLE2</desc>
      <g
         id="g375">
        <g
           id="g377"
           style="font-size:879px;font-weight:400;font-family:Times New Roman embedded">
          <g
             id="g379"
             style="fill:none;stroke:none">
            <g
               id="g381"
               transform="matrix(1,0,-0.17632698,1,759.79296,0)">
              <text
                 id="text383">
                <tspan
                   id="tspan385"
                   y="4309"
                   x="15134">x</tspan>
              </text>
            </g>
          </g>
        </g>
        <g
           id="g387"
           style="font-size:527px;font-weight:400;font-family:Times New Roman embedded">
          <g
             id="g389"
             style="fill:none;stroke:none">
            <g
               id="g391"
               transform="matrix(1,0,-0.17632698,1,685.03032,0)">
              <text
                 id="text393">
                <tspan
                   id="tspan395"
                   y="3885"
                   x="15607">i</tspan>
              </text>
            </g>
          </g>
        </g>
        <g
           id="g397"
           style="font-size:879px;font-weight:400;font-family:StarSymbol embedded">
          <g
             id="g399"
             style="fill:none;stroke:none">
            <text
               id="text401">
              <tspan
                 id="tspan403"
                 y="4309"
                 x="15813">=</tspan>
            </text>
            <text
               id="text405">
              <tspan
                 id="tspan407"
                 y="4309"
                 x="16610"></tspan>
            </text>
          </g>
        </g>
        <g
           id="g409"
           style="font-size:879px;font-weight:400;font-family:Times New Roman embedded">
          <g
             id="g411"
             style="fill:none;stroke:none">
            <g
               id="g413"
               transform="matrix(1,0,-0.17632698,1,759.79296,0)">
              <text
                 id="text415">
                <tspan
                   id="tspan417"
                   y="4309"
                   x="17053">x</tspan>
              </text>
            </g>
          </g>
        </g>
        <g
           id="g419"
           style="font-size:527px;font-weight:400;font-family:Times New Roman embedded">
          <g
             id="g421"
             style="fill:none;stroke:none">
            <text
               id="text423">
              <tspan
                 id="tspan425"
                 y="3885"
                 x="17525">1</tspan>
            </text>
          </g>
        </g>
        <g
           id="g427"
           style="font-size:879px;font-weight:400;font-family:Times New Roman embedded">
          <g
             id="g429"
             style="fill:none;stroke:none">
            <g
               id="g431"
               transform="matrix(1,0,-0.17632698,1,759.79296,0)">
              <text
                 id="text433">
                <tspan
                   id="tspan435"
                   y="4309"
                   x="17968">,</tspan>
              </text>
            </g>
          </g>
        </g>
        <g
           id="g437"
           style="font-size:879px;font-weight:400;font-family:StarSymbol embedded">
          <g
             id="g439"
             style="fill:none;stroke:none">
            <text
               id="text441">
              <tspan
                 id="tspan443"
                 y="4309"
                 x="18292"></tspan>
            </text>
          </g>
        </g>
        <g
           id="g445"
           style="font-size:879px;font-weight:400;font-family:Times New Roman embedded">
          <g
             id="g447"
             style="fill:none;stroke:none">
            <g
               id="g449"
               transform="matrix(1,0,-0.17632698,1,759.79296,0)">
              <text
                 id="text451">
                <tspan
                   id="tspan453"
                   y="4309"
                   x="19356">,</tspan>
              </text>
            </g>
            <g
               id="g455"
               transform="matrix(1,0,-0.17632698,1,759.79296,0)">
              <text
                 id="text457">
                <tspan
                   id="tspan459"
                   y="4309"
                   x="19769">x</tspan>
              </text>
            </g>
          </g>
        </g>
        <g
           id="g461"
           style="font-size:527px;font-weight:400;font-family:Times New Roman embedded">
          <g
             id="g463"
             style="fill:none;stroke:none">
            <g
               id="g465"
               transform="matrix(1,0,-0.17632698,1,685.03032,0)">
              <text
                 id="text467">
                <tspan
                   id="tspan469"
                   y="3885"
                   x="20271">n</tspan>
              </text>
            </g>
          </g>
        </g>
        <g
           id="g471"
           style="font-size:879px;font-weight:400;font-family:StarSymbol embedded">
          <g
             id="g473"
             style="fill:none;stroke:none">
            <text
               id="text475">
              <tspan
                 id="tspan477"
                 y="4309"
                 x="20624"></tspan>
            </text>
          </g>
        </g>
      </g>
    </g>
    <g
       style="visibility:visible"
       id="g503"
       transform="matrix(0.03913928,0,0,0.03995541,-22.668292,21.59724)">
      <desc
         id="desc505">OLE2</desc>
      <g
         id="g507">
        <g
           id="g509"
           style="font-size:879px;font-weight:400;font-family:Times New Roman embedded">
          <g
             id="g511"
             style="fill:none;stroke:none">
            <g
               id="g513"
               transform="matrix(1,0,-0.17632698,1,2708.3824,0)">
              <text
                 id="text515">
                <tspan
                   id="tspan517"
                   y="15360"
                   x="4791">M</tspan>
              </text>
            </g>
          </g>
        </g>
      </g>
    </g>
    <g
       style="visibility:visible"
       id="g519"
       transform="matrix(0.03913928,0,0,0.03995541,-22.668292,21.59724)">
      <desc
         id="desc521">OLE2</desc>
      <g
         id="g523">
        <g
           id="g525"
           style="font-size:879px;font-weight:400;font-family:Times New Roman embedded">
          <g
             id="g527"
             style="fill:none;stroke:none">
            <g
               id="g529"
               transform="matrix(1,0,-0.17632698,1,1181.2144,0)">
              <text
                 id="text531">
                <tspan
                   id="tspan533"
                   y="6699"
                   x="4986">U</tspan>
              </text>
            </g>
          </g>
        </g>
        <g
           id="g535"
           style="font-size:527px;font-weight:400;font-family:Times New Roman embedded">
          <g
             id="g537"
             style="fill:none;stroke:none">
            <text
               id="text539">
              <tspan
                 id="tspan541"
                 y="6897"
                 x="5747">1</tspan>
            </text>
          </g>
        </g>
      </g>
    </g>
    <g
       style="visibility:visible"
       id="g543"
       transform="matrix(0.03913928,0,0,0.03995541,-22.668292,93.59724)">
      <desc
         id="desc545">OLE2</desc>
      <g
         id="g547">
        <g
           id="g549"
           style="font-size:879px;font-weight:400;font-family:Times New Roman embedded">
          <g
             id="g551"
             style="fill:none;stroke:none">
            <g
               id="g553"
               transform="matrix(1,0,-0.17632698,1,2168.4692,0)">
              <text
                 id="text555">
                <tspan
                   id="tspan557"
                   y="12298"
                   x="5431">U</tspan>
              </text>
            </g>
          </g>
        </g>
        <g
           id="g559"
           style="font-size:527px;font-weight:400;font-family:Times New Roman embedded">
          <g
             id="g561"
             style="fill:none;stroke:none">
            <text
               id="text563">
              <tspan
                 id="tspan565"
                 y="12496"
                 x="6191">2</tspan>
            </text>
          </g>
        </g>
      </g>
    </g>
    <g
       style="visibility:visible"
       id="g567"
       transform="matrix(0.03913928,0,0,0.03995541,-24.668292,93.59724)">
      <desc
         id="desc569">Drawing</desc>
      <g
         id="g571">
        <g
           id="g573"
           style="fill:#000000;stroke:none">
          <path
             id="path575"
             d="m 5931,9459 c -26,0 -47,-6 -69,-19 -23,-12 -39,-28 -51,-50 -13,-23 -19,-44 -19,-70 0,-26 6,-47 19,-69 12,-23 28,-39 51,-51 22,-13 43,-19 69,-19 26,0 47,6 70,19 22,12 38,28 50,51 13,22 19,43 19,69 0,26 -6,47 -19,70 -12,22 -28,38 -50,50 -23,13 -44,19 -70,19 l 0,0 z"
             inkscape:connector-curvature="0" />
        </g>
        <g
           id="g577"
           style="fill:none;stroke:#000000">
          <path
             id="path579"
             d="m 5931,9459 c -26,0 -47,-6 -69,-19 -23,-12 -39,-28 -51,-50 -13,-23 -19,-44 -19,-70 0,-26 6,-47 19,-69 12,-23 28,-39 51,-51 22,-13 43,-19 69,-19 26,0 47,6 70,19 22,12 38,28 50,51 13,22 19,43 19,69 0,26 -6,47 -19,70 -12,22 -28,38 -50,50 -23,13 -44,19 -70,19"
             style="fill:none"
             inkscape:connector-curvature="0" />
        </g>
        <g
           id="g581" />
      </g>
    </g>
    <g
       style="visibility:visible"
       id="g583"
       transform="matrix(0.03913928,0,0,0.03995541,-22.668292,93.59724)">
      <desc
         id="desc585">OLE2</desc>
      <g
         id="g587">
        <g
           id="g589"
           style="font-size:879px;font-weight:400;font-family:Times New Roman embedded">
          <g
             id="g591"
             style="fill:none;stroke:none">
            <g
               id="g593"
               transform="matrix(1,0,-0.17632698,1,1692.739,0)">
              <text
                 id="text595">
                <tspan
                   id="tspan597"
                   y="9600"
                   x="5143">P</tspan>
              </text>
            </g>
          </g>
        </g>
      </g>
    </g>
    <g
       style="visibility:visible"
       id="g647"
       transform="matrix(0.03913928,0,0,0.03995541,-22.668292,21.59724)">
      <desc
         id="desc649">OLE2</desc>
      <g
         id="g651">
        <g
           id="g653"
           style="font-size:879px;font-weight:400;font-family:Times New Roman embedded">
          <g
             id="g655"
             style="fill:none;stroke:none">
            <g
               id="g657"
               transform="matrix(1,0,-0.17632698,1,1151.9442,0)">
              <text
                 id="text659">
                <tspan
                   id="tspan661"
                   y="6533"
                   x="14788">E</tspan>
              </text>
            </g>
          </g>
        </g>
        <g
           id="g663"
           style="font-size:527px;font-weight:400;font-family:Times New Roman embedded">
          <g
             id="g665"
             style="fill:none;stroke:none">
            <g
               id="g667"
               transform="matrix(1,0,-0.17632698,1,1186.8569,0)">
              <text
                 id="text669">
                <tspan
                   id="tspan671"
                   y="6731"
                   x="15405">n</tspan>
              </text>
            </g>
          </g>
        </g>
      </g>
    </g>
    <g
       style="visibility:visible"
       id="g895"
       transform="matrix(0.03913928,0,0,0.03995541,-22.668292,21.59724)">
      <desc
         id="desc897">OLE2</desc>
      <g
         id="g899">
        <g
           id="g901"
           style="font-size:879px;font-weight:400;font-family:Times New Roman embedded">
          <g
             id="g903"
             style="fill:none;stroke:none">
            <g
               id="g905"
               transform="matrix(1,0,-0.17632698,1,363.23358,0)">
              <text
                 id="text907">
                <tspan
                   id="tspan909"
                   y="2060"
                   x="15115">x</tspan>
              </text>
            </g>
          </g>
        </g>
        <g
           id="g911"
           style="font-size:527px;font-weight:400;font-family:Times New Roman embedded">
          <g
             id="g913"
             style="fill:none;stroke:none">
            <text
               id="text915">
              <tspan
                 id="tspan917"
                 y="1636"
                 x="15534">3</tspan>
            </text>
          </g>
        </g>
      </g>
    </g>
    <g
       style="visibility:visible"
       id="g993"
       transform="matrix(0.03913928,0,0,0.03995541,-282.39927,146.11116)">
      <desc
         id="desc995">Drawing</desc>
      <g
         id="g997"
         transform="matrix(0.18066441,-0.96345489,1.0040536,0.18066441,6045.6461,20247.175)">
        <g
           id="g999"
           style="fill:none;stroke:#000000;stroke-width:102;stroke-linejoin:round" />
        <g
           id="g1007" />
        <path
           style="fill:none;stroke:#000000;stroke-width:3.75;stroke-linecap:butt;stroke-linejoin:miter;stroke-miterlimit:4;stroke-opacity:1;stroke-dasharray:none;marker-end:url(#Arrow2Mend)"
           d="m 211.47495,387.46753 c 269.66605,-164.63822 476.88312,1.4193 476.88312,1.4193"
           id="path4937"
           inkscape:connector-curvature="0"
           transform="matrix(4.6159361,24.616061,-25.129353,4.5216509,22402.919,-2866.1985)" />
      </g>
    </g>
    <path
       inkscape:connector-curvature="0"
       id="path4108"
       d="m 544.98565,467.311 c 303.80383,0 303.80383,0 303.80383,0"
       style="fill:none;stroke:#000000;stroke-width:3.75;stroke-linecap:butt;stroke-linejoin:miter;stroke-miterlimit:4;stroke-opacity:1;stroke-dasharray:none;marker-end:url(#Arrow2Mend);visibility:visible" />
    <path
       sodipodi:nodetypes="cc"
       inkscape:connector-curvature="0"
       id="path4412"
       d="m 695.28841,458.56755 c 0,18.76122 0.0266,18.1967 0.0266,18.1967"
       style="fill:none;stroke:#000000;stroke-width:2.1896255;stroke-linecap:butt;stroke-linejoin:miter;stroke-miterlimit:4;stroke-opacity:1;stroke-dasharray:none" />
    <g
       style="font-style:normal;font-variant:normal;font-weight:normal;font-stretch:normal;letter-spacing:normal;word-spacing:normal;text-anchor:start;fill:none;stroke:#000000;stroke-linecap:butt;stroke-linejoin:miter;stroke-miterlimit:10.43299961;stroke-opacity:1;stroke-dasharray:none;stroke-dashoffset:0"
       ns0:preamble=""
       ns0:text="$R$"
       text-anchor="start"
       word-spacing="normal"
       letter-spacing="normal"
       font-size-adjust="none"
       font-stretch="normal"
       font-weight="normal"
       font-variant="normal"
       font-style="normal"
       fill-opacity="1"
       fill-rule="evenodd"
       fill="none"
       stroke-opacity="1"
       stroke-dashoffset="0"
       stroke-dasharray="none"
       stroke-miterlimit="10.433"
       stroke-linejoin="miter"
       stroke-linecap="butt"
       stroke="black"
       xml:space="preserve"
       transform="matrix(4,0,0,-4,-38.064482,3111.5835)"
       id="g5112"><path
         id="path5114"
         fill="black"
         stroke-width="0"
         d="M228.6,660.61 L228.69,660.63 L228.79,660.66 L228.88,660.69 L228.98,660.72 L229.07,660.75 L229.17,660.78 L229.27,660.82 L229.36,660.86 L229.46,660.91 L229.55,660.95 L229.64,661 L229.73,661.05 L229.82,661.1 L229.9,661.16 L229.99,661.22 L230.07,661.28 L230.14,661.34 L230.22,661.4 L230.29,661.47 L230.36,661.54 L230.42,661.61 L230.48,661.68 L230.53,661.76 L230.58,661.84 L230.63,661.92 L230.67,662 L230.7,662.08 L230.73,662.17 L230.75,662.26 L230.77,662.35 L230.78,662.44 L230.78,662.53 C230.78,663.38,229.89,664.02,228.59,664.02 H225.75 C225.55,664.02,225.46,664.02,225.46,663.82 C225.46,663.71,225.55,663.71,225.74,663.71 C225.76,663.71,225.95,663.71,226.12,663.69 C226.3,663.67,226.39,663.66,226.39,663.53 C226.39,663.49,226.38,663.46,226.35,663.34 L225.01,658.01 C224.91,657.62,224.9,657.54,224.11,657.54 C223.93,657.54,223.84,657.54,223.84,657.34 C223.84,657.23,223.96,657.23,223.98,657.23 C224.26,657.23,224.95,657.27,225.23,657.27 C225.51,657.27,226.22,657.23,226.5,657.23 C226.58,657.23,226.7,657.23,226.7,657.43 C226.7,657.54,226.61,657.54,226.42,657.54 C226.05,657.54,225.77,657.54,225.77,657.72 C225.77,657.78,225.79,657.83,225.8,657.89 L226.46,660.52 H227.64 L227.63,660.74 H226.52 L227.16,663.33 C227.22,663.57,227.25,663.67,227.44,663.7 C227.53,663.71,227.85,663.71,228.05,663.71 C228.76,663.71,229.86,663.71,229.86,662.73 C229.86,662.39,229.7,661.71,229.31,661.32 C229.05,661.06,228.53,660.74,227.63,660.74 L227.64,660.52 C228.55,660.52,228.73,659.97,228.73,659.62 C228.73,659.47,228.65,659.16,228.59,658.93 C228.52,658.66,228.43,658.29,228.43,658.09 C228.43,657.02,229.62,657.02,229.75,657.02 C230.6,657.02,230.94,658.02,230.94,658.16 C230.94,658.28,230.83,658.28,230.82,658.28 C230.74,658.28,230.71,658.21,230.7,658.14 C230.45,657.4,230.02,657.23,229.79,657.23 C229.46,657.23,229.39,657.45,229.39,657.84 C229.39,658.15,229.45,658.66,229.49,658.97 C229.51,659.11,229.53,659.3,229.53,659.44 C229.53,660.21,228.86,660.51,228.6,660.61 Z " /></g>    <g
       id="g4526"
       transform="matrix(4,0,0,-4,-214.61997,3131.4939)"
       xml:space="preserve"
       stroke="black"
       stroke-linecap="butt"
       stroke-linejoin="miter"
       stroke-miterlimit="10.433"
       stroke-dasharray="none"
       stroke-dashoffset="0"
       stroke-opacity="1"
       fill="none"
       fill-rule="evenodd"
       fill-opacity="1"
       font-style="normal"
       font-variant="normal"
       font-weight="normal"
       font-stretch="normal"
       font-size-adjust="none"
       letter-spacing="normal"
       word-spacing="normal"
       text-anchor="start"
       ns0:text="$x_\\alpha$"
       ns0:preamble=""
       style="font-style:normal;font-variant:normal;font-weight:normal;font-stretch:normal;letter-spacing:normal;word-spacing:normal;text-anchor:start;fill:none;stroke:#000000;stroke-linecap:butt;stroke-linejoin:miter;stroke-miterlimit:10.43299961;stroke-opacity:1;stroke-dasharray:none;stroke-dashoffset:0"><path
         d="M226.76,660.24 L226.77,660.27 L226.77,660.3 L226.78,660.33 L226.79,660.37 L226.8,660.4 L226.81,660.45 L226.83,660.49 L226.84,660.53 L226.86,660.58 L226.87,660.63 L226.89,660.68 L226.91,660.73 L226.94,660.78 L226.96,660.83 L226.99,660.88 L227.01,660.93 L227.04,660.97 L227.07,661.02 L227.11,661.07 L227.14,661.11 L227.18,661.16 L227.22,661.2 L227.26,661.23 L227.31,661.27 L227.35,661.3 L227.4,661.33 L227.43,661.34 L227.45,661.36 L227.48,661.37 L227.51,661.38 L227.53,661.39 L227.56,661.39 L227.59,661.4 L227.62,661.41 L227.65,661.41 L227.68,661.41 L227.71,661.42 L227.75,661.42 C227.8,661.42,228.04,661.42,228.24,661.29 C227.96,661.24,227.77,660.99,227.77,660.75 C227.77,660.59,227.88,660.4,228.15,660.4 C228.36,660.4,228.68,660.58,228.68,660.98 C228.68,661.5,228.1,661.64,227.76,661.64 C227.18,661.64,226.83,661.11,226.71,660.88 C226.46,661.54,225.92,661.64,225.63,661.64 C224.6,661.64,224.03,660.35,224.03,660.1 C224.03,660,224.13,660,224.15,660 C224.23,660,224.26,660.02,224.28,660.11 C224.62,661.17,225.28,661.42,225.61,661.42 C225.8,661.42,226.15,661.33,226.15,660.75 C226.15,660.44,225.98,659.77,225.61,658.38 C225.46,657.76,225.11,657.34,224.67,657.34 C224.61,657.34,224.38,657.34,224.17,657.47 C224.42,657.52,224.64,657.73,224.64,658.01 C224.64,658.28,224.42,658.36,224.27,658.36 C223.97,658.36,223.72,658.1,223.72,657.78 C223.72,657.32,224.22,657.12,224.66,657.12 C225.32,657.12,225.67,657.82,225.7,657.88 C225.82,657.51,226.18,657.12,226.78,657.12 C227.81,657.12,228.37,658.41,228.37,658.66 C228.37,658.76,228.28,658.76,228.25,658.76 C228.16,658.76,228.15,658.72,228.12,658.65 C227.8,657.58,227.12,657.34,226.8,657.34 C226.41,657.34,226.25,657.66,226.25,658 C226.25,658.22,226.31,658.44,226.42,658.88 Z "
         stroke-width="0"
         fill="black"
         id="path4528" /><path
         d="M232.94,656.72 L233,656.79 L233.06,656.85 L233.11,656.92 L233.16,656.98 L233.21,657.05 L233.26,657.12 L233.31,657.18 L233.35,657.25 L233.39,657.32 L233.43,657.39 L233.47,657.46 L233.51,657.52 L233.54,657.59 L233.57,657.65 L233.6,657.71 L233.63,657.78 L233.66,657.84 L233.68,657.89 L233.7,657.95 L233.72,658 L233.74,658.05 L233.76,658.1 L233.77,658.15 L233.79,658.19 L233.8,658.23 L233.81,658.26 L233.82,658.3 L233.83,658.32 L233.83,658.35 L233.84,658.37 L233.84,658.38 L233.84,658.39 C233.84,658.48,233.76,658.48,233.72,658.48 C233.62,658.48,233.62,658.46,233.57,658.31 C233.45,657.85,233.22,657.42,232.93,657.04 C232.92,657.15,232.9,657.62,232.89,657.68 C232.79,658.37,232.26,658.82,231.57,658.82 L231.56,658.62 C232.12,658.62,232.28,658.08,232.33,657.65 C232.38,657.35,232.36,656.86,232.4,656.49 H232.4 C231.71,655.93,231.12,655.87,230.85,655.87 C230.39,655.87,230.14,656.17,230.14,656.64 C230.14,656.84,230.23,657.6,230.6,658.08 C230.92,658.5,231.32,658.62,231.56,658.62 L231.57,658.82 C230.54,658.82,229.56,657.86,229.56,656.88 C229.56,656.24,230.02,655.67,230.83,655.67 C231.48,655.67,232.05,655.96,232.45,656.26 C232.6,655.75,232.96,655.67,233.17,655.67 C233.57,655.67,233.82,656.01,233.82,656.16 C233.82,656.24,233.74,656.24,233.71,656.24 C233.62,656.24,233.6,656.21,233.59,656.17 C233.49,655.91,233.27,655.87,233.19,655.87 C233.09,655.87,232.98,655.87,232.94,656.72 Z "
         stroke-width="0"
         fill="black"
         id="path4530" /></g>    <g
       style="font-style:normal;font-variant:normal;font-weight:normal;font-stretch:normal;letter-spacing:normal;word-spacing:normal;text-anchor:start;fill:none;stroke:#000000;stroke-linecap:butt;stroke-linejoin:miter;stroke-miterlimit:10.43299961;stroke-opacity:1;stroke-dasharray:none;stroke-dashoffset:0"
       ns0:preamble=""
       ns0:text="$s_\\alpha$"
       text-anchor="start"
       word-spacing="normal"
       letter-spacing="normal"
       font-size-adjust="none"
       font-stretch="normal"
       font-weight="normal"
       font-variant="normal"
       font-style="normal"
       fill-opacity="1"
       fill-rule="evenodd"
       fill="none"
       stroke-opacity="1"
       stroke-dashoffset="0"
       stroke-dasharray="none"
       stroke-miterlimit="10.433"
       stroke-linejoin="miter"
       stroke-linecap="butt"
       stroke="black"
       xml:space="preserve"
       transform="matrix(4,0,0,-4,-708.07735,3127.1064)"
       id="g4918"><path
         id="path4920"
         fill="black"
         stroke-width="0"
         d="M227.33,660.96 L227.3,660.96 L227.28,660.95 L227.25,660.95 L227.23,660.95 L227.2,660.94 L227.18,660.93 L227.16,660.92 L227.14,660.92 L227.11,660.91 L227.09,660.89 L227.07,660.88 L227.05,660.87 L227.04,660.86 L227.02,660.84 L227,660.83 L226.98,660.81 L226.97,660.8 L226.95,660.78 L226.94,660.76 L226.93,660.75 L226.92,660.73 L226.9,660.71 L226.89,660.69 L226.89,660.67 L226.88,660.65 L226.87,660.63 L226.86,660.61 L226.86,660.59 L226.86,660.57 L226.85,660.55 L226.85,660.53 L226.85,660.51 C226.85,660.37,226.94,660.22,227.16,660.22 C227.38,660.22,227.62,660.39,227.62,660.78 C227.62,661.23,227.19,661.64,226.43,661.64 C225.12,661.64,224.75,660.62,224.75,660.18 C224.75,659.4,225.49,659.26,225.77,659.2 C226.29,659.1,226.81,658.99,226.81,658.44 C226.81,658.18,226.58,657.34,225.38,657.34 C225.25,657.34,224.48,657.34,224.25,657.87 C224.63,657.82,224.88,658.12,224.88,658.4 C224.88,658.63,224.72,658.75,224.51,658.75 C224.25,658.75,223.95,658.54,223.95,658.09 C223.95,657.52,224.52,657.12,225.38,657.12 C226.99,657.12,227.38,658.33,227.38,658.78 C227.38,659.14,227.19,659.38,227.07,659.5 C226.8,659.78,226.51,659.83,226.07,659.92 C225.71,660,225.32,660.07,225.32,660.52 C225.32,660.81,225.55,661.42,226.43,661.42 C226.68,661.42,227.18,661.35,227.33,660.96 Z " /><path
         id="path4922"
         fill="black"
         stroke-width="0"
         d="M231.92,656.72 L231.98,656.79 L232.04,656.85 L232.09,656.92 L232.14,656.98 L232.19,657.05 L232.24,657.12 L232.29,657.18 L232.33,657.25 L232.37,657.32 L232.41,657.39 L232.45,657.46 L232.49,657.52 L232.52,657.59 L232.55,657.65 L232.58,657.71 L232.61,657.78 L232.64,657.84 L232.66,657.89 L232.68,657.95 L232.7,658 L232.72,658.05 L232.74,658.1 L232.75,658.15 L232.77,658.19 L232.78,658.23 L232.79,658.26 L232.8,658.3 L232.81,658.32 L232.81,658.35 L232.82,658.37 L232.82,658.38 L232.82,658.39 C232.82,658.48,232.74,658.48,232.7,658.48 C232.6,658.48,232.6,658.46,232.55,658.31 C232.43,657.85,232.2,657.42,231.91,657.04 C231.9,657.15,231.88,657.62,231.87,657.68 C231.77,658.37,231.24,658.82,230.55,658.82 L230.54,658.62 C231.1,658.62,231.26,658.08,231.31,657.65 C231.35,657.35,231.34,656.86,231.38,656.49 H231.38 C230.69,655.93,230.1,655.87,229.84,655.87 C229.37,655.87,229.12,656.17,229.12,656.64 C229.12,656.84,229.21,657.6,229.58,658.08 C229.9,658.5,230.29,658.62,230.54,658.62 L230.55,658.82 C229.52,658.82,228.54,657.86,228.54,656.88 C228.54,656.24,229.01,655.67,229.81,655.67 C230.46,655.67,231.03,655.96,231.43,656.26 C231.59,655.75,231.94,655.67,232.15,655.67 C232.55,655.67,232.8,656.01,232.8,656.16 C232.8,656.24,232.72,656.24,232.69,656.24 C232.6,656.24,232.58,656.21,232.57,656.17 C232.47,655.91,232.25,655.87,232.17,655.87 C232.07,655.87,231.96,655.87,231.92,656.72 Z " /></g>    <g
       id="g5309"
       transform="matrix(4,0,0,-4,-454.08209,2996.5851)"
       xml:space="preserve"
       stroke-miterlimit="10.433"
       font-style="normal"
       font-variant="normal"
       font-weight="normal"
       font-stretch="normal"
       font-size-adjust="none"
       letter-spacing="normal"
       word-spacing="normal"
       ns0:text="$X$"
       ns0:preamble=""
       style="font-style:normal;font-variant:normal;font-weight:normal;font-stretch:normal;letter-spacing:normal;word-spacing:normal;text-anchor:start;fill:none;fill-opacity:1;fill-rule:evenodd;stroke:#000000;stroke-linecap:butt;stroke-linejoin:miter;stroke-miterlimit:10.43299961;stroke-dasharray:none;stroke-dashoffset:0;stroke-opacity:1"><path
         style="fill:#000000;stroke-width:0"
         inkscape:connector-curvature="0"
         d="m 228.26,661.33 -0.83,1.98 c -0.03,0.08 -0.05,0.12 -0.05,0.13 0,0.06 0.17,0.25 0.58,0.29 0.11,0.01 0.2,0.02 0.2,0.19 0,0.12 -0.12,0.12 -0.15,0.12 -0.4,0 -0.83,-0.03 -1.25,-0.03 -0.25,0 -0.87,0.03 -1.12,0.03 -0.06,0 -0.18,0 -0.18,-0.2 0,-0.11 0.1,-0.11 0.23,-0.11 0.6,0 0.66,-0.1 0.75,-0.32 l 1.18,-2.78 -2.11,-2.26 -0.13,-0.11 c -0.48,-0.53 -0.95,-0.69 -1.46,-0.72 -0.13,-0.01 -0.22,-0.01 -0.22,-0.2 0,-0.01 0,-0.11 0.13,-0.11 0.3,0 0.63,0.03 0.94,0.03 0.37,0 0.75,-0.03 1.11,-0.03 0.06,0 0.18,0 0.18,0.2 0,0.1 -0.1,0.11 -0.12,0.11 -0.09,0.01 -0.4,0.03 -0.4,0.31 0,0.16 0.15,0.32 0.27,0.45 l 1.02,1.07 0.9,0.98 1,-2.38 c 0.04,-0.11 0.05,-0.12 0.05,-0.14 0,-0.08 -0.19,-0.25 -0.57,-0.29 -0.11,-0.01 -0.2,-0.02 -0.2,-0.19 0,-0.12 0.11,-0.12 0.14,-0.12 0.28,0 0.98,0.03 1.26,0.03 0.25,0 0.86,-0.03 1.11,-0.03 0.07,0 0.19,0 0.19,0.19 0,0.12 -0.1,0.12 -0.18,0.12 -0.67,0.01 -0.69,0.04 -0.86,0.44 -0.39,0.93 -1.06,2.48 -1.29,3.08 0.68,0.7 1.73,1.88 2.05,2.16 0.28,0.24 0.66,0.48 1.26,0.51 0.13,0.01 0.22,0.01 0.22,0.2 0,0.01 0,0.11 -0.13,0.11 -0.3,0 -0.63,-0.03 -0.93,-0.03 -0.37,0 -0.75,0.03 -1.11,0.03 -0.06,0 -0.19,0 -0.19,-0.2 0,-0.07 0.05,-0.1 0.12,-0.11 0.09,-0.01 0.4,-0.03 0.4,-0.31 0,-0.14 -0.11,-0.27 -0.19,-0.36 z"
         id="path5311" /></g>    <g
       style="font-style:normal;font-variant:normal;font-weight:normal;font-stretch:normal;letter-spacing:normal;word-spacing:normal;text-anchor:start;fill:none;fill-opacity:1;fill-rule:evenodd;stroke:#000000;stroke-linecap:butt;stroke-linejoin:miter;stroke-miterlimit:10.43299961;stroke-dasharray:none;stroke-dashoffset:0;stroke-opacity:1"
       ns0:preamble=""
       ns0:text="$S=\\{s_\\alpha\\}$"
       word-spacing="normal"
       letter-spacing="normal"
       font-size-adjust="none"
       font-stretch="normal"
       font-weight="normal"
       font-variant="normal"
       font-style="normal"
       stroke-miterlimit="10.433"
       xml:space="preserve"
       transform="matrix(4,0,0,-4,-780.40327,2965.5835)"
       id="content"><path
         id="path5691"
         d="m 229.86,664.16 0,0 0,0 0,0.01 0,0 0,0 0,0.01 -0.01,0 0,0 0,0.01 0,0 0,0.01 0,0 -0.01,0 0,0.01 0,0 0,0.01 -0.01,0 0,0 0,0.01 -0.01,0 0,0.01 -0.01,0 0,0 -0.01,0 0,0.01 0,0 -0.01,0 0,0 0,0 -0.01,0 0,0 0,0 -0.01,0 0,0 -0.01,0.01 0,0 0,0 -0.01,0 0,0 c -0.05,0 -0.06,-0.01 -0.18,-0.15 l -0.48,-0.57 c -0.26,0.47 -0.78,0.72 -1.42,0.72 -1.27,0 -2.46,-1.15 -2.46,-2.35 0,-0.81 0.52,-1.27 1.03,-1.42 l 1.07,-0.28 c 0.37,-0.09 0.92,-0.24 0.92,-1.05 0,-0.9 -0.82,-1.84 -1.8,-1.84 -0.64,0 -1.74,0.22 -1.74,1.46 0,0.24 0.05,0.48 0.06,0.54 0.01,0.03 0.02,0.04 0.02,0.06 0,0.1 -0.07,0.11 -0.12,0.11 -0.05,0 -0.07,-0.01 -0.1,-0.04 -0.04,-0.04 -0.6,-2.31 -0.6,-2.34 0,-0.06 0.05,-0.1 0.11,-0.1 0.05,0 0.06,0.01 0.18,0.15 l 0.49,0.57 c 0.43,-0.58 1.1,-0.72 1.68,-0.72 1.36,0 2.53,1.33 2.53,2.56 0,0.69 -0.34,1.03 -0.49,1.17 -0.22,0.23 -0.38,0.27 -1.26,0.5 -0.22,0.06 -0.58,0.16 -0.67,0.18 -0.27,0.09 -0.61,0.37 -0.61,0.9 0,0.81 0.8,1.66 1.75,1.66 0.82,0 1.43,-0.43 1.43,-1.55 0,-0.32 -0.04,-0.5 -0.04,-0.55 0,-0.02 0,-0.1 0.12,-0.1 0.1,0 0.11,0.02 0.15,0.19 z"
         inkscape:connector-curvature="0"
         style="fill:#000000;stroke-width:0" /><path
         id="path5693"
         d="m 239.73,660.49 0.03,0 0.02,0 0.03,0 0.02,0 0.01,0 0.02,0 0.01,0.01 0.02,0 0.01,0 0.01,0 0.02,0.01 0.01,0 0.01,0 0.01,0.01 0.02,0.01 0.01,0 0.01,0.01 0.01,0.01 0.01,0 0.01,0.01 0,0.01 0.01,0.01 0,0.01 0,0 0.01,0.01 0,0 0,0.01 0.01,0.01 0,0 0,0.01 0,0.01 0,0.01 0,0 0,0.01 0.01,0.01 0,0.01 0,0.01 c 0,0.2 -0.19,0.2 -0.33,0.2 l -5.97,0 c -0.14,0 -0.33,0 -0.33,-0.2 0,-0.2 0.19,-0.2 0.34,-0.2 z"
         inkscape:connector-curvature="0"
         style="fill:#000000;stroke-width:0" /><path
         id="path5695"
         d="m 239.74,658.56 0.01,0 0.01,0 0.03,0 0.03,0 0.01,0 0.02,0 0.01,0 0.01,0 0.02,0.01 0.01,0 0.02,0 0.01,0 0.01,0.01 0.01,0 0.02,0.01 0.01,0 0.01,0.01 0.01,0.01 0.01,0 0.01,0.01 0.01,0.01 0,0.01 0,0 0.01,0.01 0,0 0,0.01 0.01,0 0,0.01 0,0.01 0.01,0 0,0.01 0,0.01 0,0.01 0,0 0,0.01 0,0.01 0.01,0.01 0,0.01 0,0.01 c 0,0.2 -0.19,0.2 -0.34,0.2 l -5.95,0 c -0.15,0 -0.34,0 -0.34,-0.2 0,-0.2 0.19,-0.2 0.33,-0.2 z"
         inkscape:connector-curvature="0"
         style="fill:#000000;stroke-width:0" /><path
         id="path5697"
         d="m 246.22,663.38 0,0.04 0,0.04 0,0.04 0.01,0.04 0.01,0.04 0.01,0.04 0.01,0.05 0.01,0.04 0.02,0.04 0.02,0.05 0.02,0.04 0.03,0.05 0.02,0.04 0.03,0.04 0.04,0.04 0.03,0.05 0.04,0.04 0.04,0.04 0.05,0.03 0.05,0.04 0.05,0.03 0.06,0.04 0.06,0.03 0.06,0.03 0.07,0.03 0.07,0.02 0.08,0.02 0.08,0.02 0.04,0.01 0.05,0.01 0.04,0.01 0.05,0.01 0.04,0 0.05,0.01 0.05,0 0.05,0 c 0.05,0.01 0.09,0.05 0.09,0.11 0,0.11 -0.08,0.11 -0.19,0.11 -0.99,0 -1.9,-0.5 -1.91,-1.24 l 0,-2.27 c 0,-0.39 0,-0.71 -0.4,-1.04 -0.35,-0.29 -0.73,-0.31 -0.95,-0.32 -0.05,-0.01 -0.08,-0.05 -0.08,-0.11 0,-0.1 0.06,-0.1 0.15,-0.11 0.66,-0.04 1.14,-0.39 1.25,-0.88 0.03,-0.11 0.03,-0.13 0.03,-0.49 l 0,-1.97 c 0,-0.42 0,-0.74 0.48,-1.12 0.39,-0.3 1.04,-0.41 1.43,-0.41 0.11,0 0.19,0 0.19,0.11 0,0.1 -0.06,0.1 -0.16,0.11 -0.62,0.04 -1.11,0.36 -1.24,0.87 -0.03,0.09 -0.03,0.11 -0.03,0.47 l 0,2.09 c 0,0.46 -0.08,0.63 -0.4,0.95 -0.21,0.2 -0.5,0.3 -0.78,0.38 0.82,0.23 1.18,0.69 1.18,1.27 z"
         inkscape:connector-curvature="0"
         style="fill:#000000;stroke-width:0" /><path
         id="path5699"
         d="m 252.27,660.96 -0.02,0 -0.03,-0.01 -0.02,0 -0.03,0 -0.02,-0.01 -0.02,-0.01 -0.03,-0.01 -0.02,0 -0.02,-0.01 -0.02,-0.02 -0.02,-0.01 -0.02,-0.01 -0.02,-0.01 -0.02,-0.02 -0.01,-0.01 -0.02,-0.02 -0.02,-0.01 -0.01,-0.02 -0.01,-0.02 -0.02,-0.01 -0.01,-0.02 -0.01,-0.02 -0.01,-0.02 -0.01,-0.02 -0.01,-0.02 0,-0.02 -0.01,-0.02 -0.01,-0.02 0,-0.02 0,-0.02 0,-0.02 -0.01,-0.02 c 0,-0.14 0.09,-0.29 0.31,-0.29 0.22,0 0.46,0.17 0.46,0.56 0,0.45 -0.43,0.86 -1.18,0.86 -1.32,0 -1.69,-1.02 -1.69,-1.46 0,-0.78 0.74,-0.92 1.03,-0.98 0.52,-0.1 1.04,-0.21 1.04,-0.76 0,-0.26 -0.23,-1.1 -1.43,-1.1 -0.14,0 -0.91,0 -1.14,0.53 0.38,-0.05 0.63,0.25 0.63,0.53 0,0.23 -0.16,0.35 -0.37,0.35 -0.26,0 -0.55,-0.21 -0.55,-0.66 0,-0.57 0.56,-0.97 1.42,-0.97 1.61,0 2,1.21 2,1.66 0,0.36 -0.19,0.6 -0.31,0.72 -0.27,0.28 -0.55,0.33 -0.99,0.42 -0.36,0.08 -0.76,0.15 -0.76,0.6 0,0.29 0.24,0.9 1.12,0.9 0.24,0 0.74,-0.07 0.89,-0.46 z"
         inkscape:connector-curvature="0"
         style="fill:#000000;stroke-width:0" /><path
         id="path5701"
         d="m 256.86,656.72 0.06,0.07 0.06,0.06 0.06,0.07 0.05,0.06 0.05,0.07 0.05,0.07 0.04,0.06 0.05,0.07 0.04,0.07 0.04,0.07 0.04,0.07 0.03,0.06 0.03,0.07 0.04,0.06 0.03,0.06 0.02,0.07 0.03,0.06 0.03,0.05 0.02,0.06 0.02,0.05 0.02,0.05 0.01,0.05 0.02,0.05 0.01,0.04 0.02,0.04 0.01,0.03 0,0.04 0.01,0.02 0.01,0.03 0,0.02 0,0.01 0,0.01 c 0,0.09 -0.08,0.09 -0.11,0.09 -0.1,0 -0.1,-0.02 -0.15,-0.17 -0.13,-0.46 -0.36,-0.89 -0.65,-1.27 -0.01,0.11 -0.02,0.58 -0.03,0.64 -0.11,0.69 -0.63,1.14 -1.33,1.14 l -0.01,-0.2 c 0.56,0 0.72,-0.54 0.78,-0.97 0.04,-0.3 0.03,-0.79 0.06,-1.16 l 0,0 c -0.68,-0.56 -1.28,-0.62 -1.54,-0.62 -0.46,0 -0.72,0.3 -0.72,0.77 0,0.2 0.1,0.96 0.46,1.44 0.32,0.42 0.72,0.54 0.96,0.54 l 0.01,0.2 c -1.02,0 -2.01,-0.96 -2.01,-1.94 0,-0.64 0.47,-1.21 1.28,-1.21 0.64,0 1.22,0.29 1.61,0.59 0.16,-0.51 0.52,-0.59 0.73,-0.59 0.4,0 0.65,0.34 0.65,0.49 0,0.08 -0.08,0.08 -0.12,0.08 -0.09,0 -0.1,-0.03 -0.12,-0.07 -0.09,-0.26 -0.31,-0.3 -0.39,-0.3 -0.1,0 -0.22,0 -0.26,0.85 z"
         inkscape:connector-curvature="0"
         style="fill:#000000;stroke-width:0" /><path
         id="path5703"
         d="m 260.88,656.07 0,-0.04 0,-0.04 -0.01,-0.04 0,-0.04 -0.01,-0.04 -0.01,-0.05 -0.01,-0.04 -0.02,-0.04 -0.02,-0.05 -0.01,-0.04 -0.03,-0.05 -0.02,-0.04 -0.03,-0.04 -0.03,-0.05 -0.03,-0.04 -0.04,-0.04 -0.04,-0.04 -0.04,-0.04 -0.04,-0.04 -0.05,-0.03 -0.06,-0.04 -0.05,-0.03 -0.06,-0.03 -0.07,-0.03 -0.07,-0.03 -0.07,-0.03 -0.08,-0.02 -0.08,-0.02 -0.04,-0.01 -0.04,-0.01 -0.05,0 -0.04,-0.01 -0.05,-0.01 -0.05,0 -0.05,-0.01 -0.05,0 c -0.05,-0.01 -0.08,-0.05 -0.08,-0.11 0,-0.11 0.1,-0.11 0.19,-0.11 0.97,0 1.9,0.49 1.91,1.25 l 0,2.27 c 0,0.39 0,0.71 0.4,1.03 0.34,0.29 0.72,0.31 0.94,0.32 0.05,0.01 0.09,0.05 0.09,0.11 0,0.1 -0.06,0.1 -0.16,0.11 -0.65,0.04 -1.13,0.4 -1.24,0.89 -0.03,0.11 -0.03,0.13 -0.03,0.49 l 0,1.97 c 0,0.42 0,0.74 -0.48,1.12 -0.4,0.3 -1.09,0.4 -1.43,0.4 -0.09,0 -0.19,0 -0.19,-0.11 0,-0.1 0.06,-0.1 0.15,-0.11 0.63,-0.03 1.12,-0.35 1.25,-0.86 0.03,-0.09 0.03,-0.11 0.03,-0.47 l 0,-2.09 c 0,-0.46 0.08,-0.63 0.4,-0.95 0.21,-0.21 0.5,-0.31 0.77,-0.39 -0.81,-0.23 -1.17,-0.68 -1.17,-1.26 z"
         inkscape:connector-curvature="0"
         style="fill:#000000;stroke-width:0" /></g>  </g>
</svg>
