<?xml version="1.0" encoding="UTF-8" standalone="no"?>
<!-- Created with Inkscape (http://www.inkscape.org/) -->

<svg
   xmlns:ns0="http://www.iki.fi/pav/software/textext/"
   xmlns:dc="http://purl.org/dc/elements/1.1/"
   xmlns:cc="http://creativecommons.org/ns#"
   xmlns:rdf="http://www.w3.org/1999/02/22-rdf-syntax-ns#"
   xmlns:svg="http://www.w3.org/2000/svg"
   xmlns="http://www.w3.org/2000/svg"
   xmlns:sodipodi="http://sodipodi.sourceforge.net/DTD/sodipodi-0.dtd"
   xmlns:inkscape="http://www.inkscape.org/namespaces/inkscape"
   width="792pt"
   height="612pt"
   id="svg4538"
   version="1.1"
   inkscape:version="0.48.4 r9939"
   sodipodi:docname="fig-esp-muestral.svg">
  <sodipodi:namedview
     inkscape:document-units="in"
     pagecolor="#ffffff"
     bordercolor="#666666"
     borderopacity="1.0"
     inkscape:pageopacity="0.0"
     inkscape:pageshadow="2"
     inkscape:zoom="0.82745098"
     inkscape:cx="497.41706"
     inkscape:cy="382.5"
     inkscape:current-layer="layer1"
     id="namedview4542"
     showgrid="false"
     inkscape:window-width="1440"
     inkscape:window-height="850"
     inkscape:window-x="0"
     inkscape:window-y="0"
     inkscape:window-maximized="1" />
  <defs
     id="defs4540">
    <marker
       inkscape:stockid="Arrow2Mend"
       orient="auto"
       refY="0.0"
       refX="0.0"
       id="Arrow2Mend"
       style="overflow:visible;">
      <path
         id="path4141"
         style="fill-rule:evenodd;stroke-width:0.62500000;stroke-linejoin:round;"
         d="M 8.7185878,4.0337352 L -2.2072895,0.016013256 L 8.7185884,-4.0017078 C 6.9730900,-1.6296469 6.9831476,1.6157441 8.7185878,4.0337352 z "
         transform="scale(0.6) rotate(180) translate(0,0)" />
    </marker>
    <marker
       inkscape:stockid="Arrow1Send"
       orient="auto"
       refY="0.0"
       refX="0.0"
       id="Arrow1Send"
       style="overflow:visible;">
      <path
         id="path4129"
         d="M 0.0,0.0 L 5.0,-5.0 L -12.5,0.0 L 5.0,5.0 L 0.0,0.0 z "
         style="fill-rule:evenodd;stroke:#000000;stroke-width:1.0pt;"
         transform="scale(0.2) rotate(180) translate(6,0)" />
    </marker>
  </defs>
  <metadata
     id="metadata4544">
    <rdf:RDF>
      <cc:Work
         rdf:about="">
        <dc:format>image/svg+xml</dc:format>
        <dc:type
           rdf:resource="http://purl.org/dc/dcmitype/StillImage" />
        <dc:title />
      </cc:Work>
    </rdf:RDF>
  </metadata>
  <g
     inkscape:label="Layer 1"
     inkscape:groupmode="layer"
     id="layer1">
    <g
       style="stroke-width:31.60936737;stroke-miterlimit:4;stroke-dasharray:none;visibility:visible"
       id="g259"
       transform="matrix(0.03913928,0,0,0.03273598,-28.710946,62.616709)">
      <desc
         id="desc261">Drawing</desc>
      <g
         style="stroke-width:31.60936737;stroke-miterlimit:4;stroke-dasharray:none"
         id="g263">
        <g
           id="g265"
           style="fill:#ffffcc;stroke:none">
          <path
             id="path267"
             d="m 2698,6406 c -216,-1996 100,-2137 627,-2727 527,-590 383,-912 1768,-808 826,62 1922,195 2395,668 585,585 838,1199 1003,1894 189,795 250,975 -56,2451 -56,771 -390,891 -167,2312 287,1133 1098,2253 863,3398 -132,642 -574,1357 -1197,1559 -1121,364 -2699,1514 -3426,864 C 3439,15062 2235,13792 2475,12229 L 2976,8970 2698,6406 z"
             inkscape:connector-curvature="0" />
        </g>
        <g
           id="g269"
           style="fill:none;stroke:#000000;stroke-width:31.60936737;stroke-miterlimit:4;stroke-dasharray:none">
          <path
             id="path271"
             d="m 2698,6406 c -216,-1996 100,-2137 627,-2727 527,-590 383,-912 1768,-808 826,62 1922,195 2395,668 585,585 838,1199 1003,1894 189,795 250,975 -56,2451 -56,771 -390,891 -167,2312 287,1133 1098,2253 863,3398 -132,642 -574,1357 -1197,1559 -1121,364 -2699,1514 -3426,864 C 3439,15062 2235,13792 2475,12229 L 2976,8970 2698,6406"
             style="fill:none;stroke-width:31.60936737;stroke-miterlimit:4;stroke-dasharray:none"
             inkscape:connector-curvature="0" />
        </g>
        <g
           style="stroke-width:31.60936737;stroke-miterlimit:4;stroke-dasharray:none"
           id="g273" />
      </g>
    </g>
    <g
       style="visibility:visible"
       id="g323"
       transform="matrix(0.03913928,0,0,0.03995541,-22.668292,93.59724)">
      <desc
         id="desc325">OLE2</desc>
      <g
         id="g327">
        <g
           id="g329"
           style="font-size:879px;font-weight:400;font-family:Times New Roman embedded">
          <g
             id="g331"
             style="fill:none;stroke:none">
            <g
               id="g333"
               transform="matrix(1,0,-0.17632698,1,1440.4151,0)">
              <text
                 id="text335">
                <tspan
                   id="tspan337"
                   y="8169"
                   x="12862">x</tspan>
              </text>
            </g>
          </g>
        </g>
        <g
           id="g339"
           style="font-size:527px;font-weight:400;font-family:Times New Roman embedded">
          <g
             id="g341"
             style="fill:none;stroke:none">
            <text
               id="text343">
              <tspan
                 id="tspan345"
                 y="7745"
                 x="13284">1</tspan>
            </text>
          </g>
        </g>
      </g>
    </g>
    <g
       style="visibility:visible"
       id="g347"
       transform="matrix(0.03913928,0,0,0.03995541,-22.668292,21.59724)">
      <desc
         id="desc349">OLE2</desc>
      <g
         id="g351">
        <g
           id="g353"
           style="font-size:879px;font-weight:400;font-family:Times New Roman embedded">
          <g
             id="g355"
             style="fill:none;stroke:none">
            <g
               id="g357"
               transform="matrix(1,0,-0.17632698,1,1109.802,0)">
              <text
                 id="text359">
                <tspan
                   id="tspan361"
                   y="6294"
                   x="18520">x</tspan>
              </text>
            </g>
          </g>
        </g>
        <g
           id="g363"
           style="font-size:527px;font-weight:400;font-family:Times New Roman embedded">
          <g
             id="g365"
             style="fill:none;stroke:none">
            <text
               id="text367">
              <tspan
                 id="tspan369"
                 y="5871"
                 x="18963">2</tspan>
            </text>
          </g>
        </g>
      </g>
    </g>
    <g
       style="visibility:visible"
       id="g371"
       transform="matrix(0.03913928,0,0,0.03995541,-22.668292,21.59724)">
      <desc
         id="desc373">OLE2</desc>
      <g
         id="g375">
        <g
           id="g377"
           style="font-size:879px;font-weight:400;font-family:Times New Roman embedded">
          <g
             id="g379"
             style="fill:none;stroke:none">
            <g
               id="g381"
               transform="matrix(1,0,-0.17632698,1,759.79296,0)">
              <text
                 id="text383">
                <tspan
                   id="tspan385"
                   y="4309"
                   x="15134">x</tspan>
              </text>
            </g>
          </g>
        </g>
        <g
           id="g387"
           style="font-size:527px;font-weight:400;font-family:Times New Roman embedded">
          <g
             id="g389"
             style="fill:none;stroke:none">
            <g
               id="g391"
               transform="matrix(1,0,-0.17632698,1,685.03032,0)">
              <text
                 id="text393">
                <tspan
                   id="tspan395"
                   y="3885"
                   x="15607">i</tspan>
              </text>
            </g>
          </g>
        </g>
        <g
           id="g397"
           style="font-size:879px;font-weight:400;font-family:StarSymbol embedded">
          <g
             id="g399"
             style="fill:none;stroke:none">
            <text
               id="text401">
              <tspan
                 id="tspan403"
                 y="4309"
                 x="15813">=</tspan>
            </text>
            <text
               id="text405">
              <tspan
                 id="tspan407"
                 y="4309"
                 x="16610"></tspan>
            </text>
          </g>
        </g>
        <g
           id="g409"
           style="font-size:879px;font-weight:400;font-family:Times New Roman embedded">
          <g
             id="g411"
             style="fill:none;stroke:none">
            <g
               id="g413"
               transform="matrix(1,0,-0.17632698,1,759.79296,0)">
              <text
                 id="text415">
                <tspan
                   id="tspan417"
                   y="4309"
                   x="17053">x</tspan>
              </text>
            </g>
          </g>
        </g>
        <g
           id="g419"
           style="font-size:527px;font-weight:400;font-family:Times New Roman embedded">
          <g
             id="g421"
             style="fill:none;stroke:none">
            <text
               id="text423">
              <tspan
                 id="tspan425"
                 y="3885"
                 x="17525">1</tspan>
            </text>
          </g>
        </g>
        <g
           id="g427"
           style="font-size:879px;font-weight:400;font-family:Times New Roman embedded">
          <g
             id="g429"
             style="fill:none;stroke:none">
            <g
               id="g431"
               transform="matrix(1,0,-0.17632698,1,759.79296,0)">
              <text
                 id="text433">
                <tspan
                   id="tspan435"
                   y="4309"
                   x="17968">,</tspan>
              </text>
            </g>
          </g>
        </g>
        <g
           id="g437"
           style="font-size:879px;font-weight:400;font-family:StarSymbol embedded">
          <g
             id="g439"
             style="fill:none;stroke:none">
            <text
               id="text441">
              <tspan
                 id="tspan443"
                 y="4309"
                 x="18292"></tspan>
            </text>
          </g>
        </g>
        <g
           id="g445"
           style="font-size:879px;font-weight:400;font-family:Times New Roman embedded">
          <g
             id="g447"
             style="fill:none;stroke:none">
            <g
               id="g449"
               transform="matrix(1,0,-0.17632698,1,759.79296,0)">
              <text
                 id="text451">
                <tspan
                   id="tspan453"
                   y="4309"
                   x="19356">,</tspan>
              </text>
            </g>
            <g
               id="g455"
               transform="matrix(1,0,-0.17632698,1,759.79296,0)">
              <text
                 id="text457">
                <tspan
                   id="tspan459"
                   y="4309"
                   x="19769">x</tspan>
              </text>
            </g>
          </g>
        </g>
        <g
           id="g461"
           style="font-size:527px;font-weight:400;font-family:Times New Roman embedded">
          <g
             id="g463"
             style="fill:none;stroke:none">
            <g
               id="g465"
               transform="matrix(1,0,-0.17632698,1,685.03032,0)">
              <text
                 id="text467">
                <tspan
                   id="tspan469"
                   y="3885"
                   x="20271">n</tspan>
              </text>
            </g>
          </g>
        </g>
        <g
           id="g471"
           style="font-size:879px;font-weight:400;font-family:StarSymbol embedded">
          <g
             id="g473"
             style="fill:none;stroke:none">
            <text
               id="text475">
              <tspan
                 id="tspan477"
                 y="4309"
                 x="20624"></tspan>
            </text>
          </g>
        </g>
      </g>
    </g>
    <g
       style="visibility:visible"
       id="g503"
       transform="matrix(0.03913928,0,0,0.03995541,-22.668292,21.59724)">
      <desc
         id="desc505">OLE2</desc>
      <g
         id="g507">
        <g
           id="g509"
           style="font-size:879px;font-weight:400;font-family:Times New Roman embedded">
          <g
             id="g511"
             style="fill:none;stroke:none">
            <g
               id="g513"
               transform="matrix(1,0,-0.17632698,1,2708.3824,0)">
              <text
                 id="text515">
                <tspan
                   id="tspan517"
                   y="15360"
                   x="4791">M</tspan>
              </text>
            </g>
          </g>
        </g>
      </g>
    </g>
    <g
       style="visibility:visible"
       id="g519"
       transform="matrix(0.03913928,0,0,0.03995541,-22.668292,21.59724)">
      <desc
         id="desc521">OLE2</desc>
      <g
         id="g523">
        <g
           id="g525"
           style="font-size:879px;font-weight:400;font-family:Times New Roman embedded">
          <g
             id="g527"
             style="fill:none;stroke:none">
            <g
               id="g529"
               transform="matrix(1,0,-0.17632698,1,1181.2144,0)">
              <text
                 id="text531">
                <tspan
                   id="tspan533"
                   y="6699"
                   x="4986">U</tspan>
              </text>
            </g>
          </g>
        </g>
        <g
           id="g535"
           style="font-size:527px;font-weight:400;font-family:Times New Roman embedded">
          <g
             id="g537"
             style="fill:none;stroke:none">
            <text
               id="text539">
              <tspan
                 id="tspan541"
                 y="6897"
                 x="5747">1</tspan>
            </text>
          </g>
        </g>
      </g>
    </g>
    <g
       style="visibility:visible"
       id="g543"
       transform="matrix(0.03913928,0,0,0.03995541,-22.668292,93.59724)">
      <desc
         id="desc545">OLE2</desc>
      <g
         id="g547">
        <g
           id="g549"
           style="font-size:879px;font-weight:400;font-family:Times New Roman embedded">
          <g
             id="g551"
             style="fill:none;stroke:none">
            <g
               id="g553"
               transform="matrix(1,0,-0.17632698,1,2168.4692,0)">
              <text
                 id="text555">
                <tspan
                   id="tspan557"
                   y="12298"
                   x="5431">U</tspan>
              </text>
            </g>
          </g>
        </g>
        <g
           id="g559"
           style="font-size:527px;font-weight:400;font-family:Times New Roman embedded">
          <g
             id="g561"
             style="fill:none;stroke:none">
            <text
               id="text563">
              <tspan
                 id="tspan565"
                 y="12496"
                 x="6191">2</tspan>
            </text>
          </g>
        </g>
      </g>
    </g>
    <g
       style="visibility:visible"
       id="g567"
       transform="matrix(0.03913928,0,0,0.03995541,-24.668292,93.59724)">
      <desc
         id="desc569">Drawing</desc>
      <g
         id="g571">
        <g
           id="g573"
           style="fill:#000000;stroke:none">
          <path
             id="path575"
             d="m 5931,9459 c -26,0 -47,-6 -69,-19 -23,-12 -39,-28 -51,-50 -13,-23 -19,-44 -19,-70 0,-26 6,-47 19,-69 12,-23 28,-39 51,-51 22,-13 43,-19 69,-19 26,0 47,6 70,19 22,12 38,28 50,51 13,22 19,43 19,69 0,26 -6,47 -19,70 -12,22 -28,38 -50,50 -23,13 -44,19 -70,19 l 0,0 z"
             inkscape:connector-curvature="0" />
        </g>
        <g
           id="g577"
           style="fill:none;stroke:#000000">
          <path
             id="path579"
             d="m 5931,9459 c -26,0 -47,-6 -69,-19 -23,-12 -39,-28 -51,-50 -13,-23 -19,-44 -19,-70 0,-26 6,-47 19,-69 12,-23 28,-39 51,-51 22,-13 43,-19 69,-19 26,0 47,6 70,19 22,12 38,28 50,51 13,22 19,43 19,69 0,26 -6,47 -19,70 -12,22 -28,38 -50,50 -23,13 -44,19 -70,19"
             style="fill:none"
             inkscape:connector-curvature="0" />
        </g>
        <g
           id="g581" />
      </g>
    </g>
    <g
       style="visibility:visible"
       id="g583"
       transform="matrix(0.03913928,0,0,0.03995541,-22.668292,93.59724)">
      <desc
         id="desc585">OLE2</desc>
      <g
         id="g587">
        <g
           id="g589"
           style="font-size:879px;font-weight:400;font-family:Times New Roman embedded">
          <g
             id="g591"
             style="fill:none;stroke:none">
            <g
               id="g593"
               transform="matrix(1,0,-0.17632698,1,1692.739,0)">
              <text
                 id="text595">
                <tspan
                   id="tspan597"
                   y="9600"
                   x="5143">P</tspan>
              </text>
            </g>
          </g>
        </g>
      </g>
    </g>
    <g
       style="visibility:visible"
       id="g647"
       transform="matrix(0.03913928,0,0,0.03995541,-22.668292,21.59724)">
      <desc
         id="desc649">OLE2</desc>
      <g
         id="g651">
        <g
           id="g653"
           style="font-size:879px;font-weight:400;font-family:Times New Roman embedded">
          <g
             id="g655"
             style="fill:none;stroke:none">
            <g
               id="g657"
               transform="matrix(1,0,-0.17632698,1,1151.9442,0)">
              <text
                 id="text659">
                <tspan
                   id="tspan661"
                   y="6533"
                   x="14788">E</tspan>
              </text>
            </g>
          </g>
        </g>
        <g
           id="g663"
           style="font-size:527px;font-weight:400;font-family:Times New Roman embedded">
          <g
             id="g665"
             style="fill:none;stroke:none">
            <g
               id="g667"
               transform="matrix(1,0,-0.17632698,1,1186.8569,0)">
              <text
                 id="text669">
                <tspan
                   id="tspan671"
                   y="6731"
                   x="15405">n</tspan>
              </text>
            </g>
          </g>
        </g>
      </g>
    </g>
    <g
       style="visibility:visible"
       id="g895"
       transform="matrix(0.03913928,0,0,0.03995541,-22.668292,21.59724)">
      <desc
         id="desc897">OLE2</desc>
      <g
         id="g899">
        <g
           id="g901"
           style="font-size:879px;font-weight:400;font-family:Times New Roman embedded">
          <g
             id="g903"
             style="fill:none;stroke:none">
            <g
               id="g905"
               transform="matrix(1,0,-0.17632698,1,363.23358,0)">
              <text
                 id="text907">
                <tspan
                   id="tspan909"
                   y="2060"
                   x="15115">x</tspan>
              </text>
            </g>
          </g>
        </g>
        <g
           id="g911"
           style="font-size:527px;font-weight:400;font-family:Times New Roman embedded">
          <g
             id="g913"
             style="fill:none;stroke:none">
            <text
               id="text915">
              <tspan
                 id="tspan917"
                 y="1636"
                 x="15534">3</tspan>
            </text>
          </g>
        </g>
      </g>
    </g>
    <g
       style="visibility:visible"
       id="g993"
       transform="matrix(0.03913928,0,0,0.03995541,-282.39927,146.11116)">
      <desc
         id="desc995">Drawing</desc>
      <g
         id="g997"
         transform="matrix(0.18066441,-0.96345489,1.0040536,0.18066441,6045.6461,20247.175)">
        <g
           id="g999"
           style="fill:none;stroke:#000000;stroke-width:102;stroke-linejoin:round" />
        <g
           id="g1007" />
        <path
           style="fill:none;stroke:#000000;stroke-width:3.75;stroke-linecap:butt;stroke-linejoin:miter;stroke-miterlimit:4;stroke-opacity:1;stroke-dasharray:none;marker-end:url(#Arrow2Mend)"
           d="m 211.47495,387.46753 c 269.66605,-164.63822 476.88312,1.4193 476.88312,1.4193"
           id="path4937"
           inkscape:connector-curvature="0"
           transform="matrix(4.6159361,24.616061,-25.129353,4.5216509,22402.919,-2866.1985)" />
      </g>
    </g>
    <path
       inkscape:connector-curvature="0"
       id="path4108"
       d="m 544.98565,467.311 c 303.80383,0 303.80383,0 303.80383,0"
       style="fill:none;stroke:#000000;stroke-width:3.75;stroke-linecap:butt;stroke-linejoin:miter;stroke-miterlimit:4;stroke-opacity:1;stroke-dasharray:none;marker-end:url(#Arrow2Mend);visibility:visible" />
    <path
       sodipodi:nodetypes="cc"
       inkscape:connector-curvature="0"
       id="path4412"
       d="m 695.28841,458.56755 c 0,18.76122 0.0266,18.1967 0.0266,18.1967"
       style="fill:none;stroke:#000000;stroke-width:2.1896255;stroke-linecap:butt;stroke-linejoin:miter;stroke-miterlimit:4;stroke-opacity:1;stroke-dasharray:none" />
    <g
       style="font-style:normal;font-variant:normal;font-weight:normal;font-stretch:normal;letter-spacing:normal;word-spacing:normal;text-anchor:start;fill:none;stroke:#000000;stroke-linecap:butt;stroke-linejoin:miter;stroke-miterlimit:10.43299961;stroke-opacity:1;stroke-dasharray:none;stroke-dashoffset:0"
       ns0:preamble=""
       ns0:text="$R$"
       text-anchor="start"
       word-spacing="normal"
       letter-spacing="normal"
       font-size-adjust="none"
       font-stretch="normal"
       font-weight="normal"
       font-variant="normal"
       font-style="normal"
       fill-opacity="1"
       fill-rule="evenodd"
       fill="none"
       stroke-opacity="1"
       stroke-dashoffset="0"
       stroke-dasharray="none"
       stroke-miterlimit="10.433"
       stroke-linejoin="miter"
       stroke-linecap="butt"
       stroke="black"
       xml:space="preserve"
       transform="matrix(4,0,0,-4,-38.064482,3111.5835)"
       id="g5112"><path
         id="path5114"
         fill="black"
         stroke-width="0"
         d="M228.6,660.61 L228.69,660.63 L228.79,660.66 L228.88,660.69 L228.98,660.72 L229.07,660.75 L229.17,660.78 L229.27,660.82 L229.36,660.86 L229.46,660.91 L229.55,660.95 L229.64,661 L229.73,661.05 L229.82,661.1 L229.9,661.16 L229.99,661.22 L230.07,661.28 L230.14,661.34 L230.22,661.4 L230.29,661.47 L230.36,661.54 L230.42,661.61 L230.48,661.68 L230.53,661.76 L230.58,661.84 L230.63,661.92 L230.67,662 L230.7,662.08 L230.73,662.17 L230.75,662.26 L230.77,662.35 L230.78,662.44 L230.78,662.53 C230.78,663.38,229.89,664.02,228.59,664.02 H225.75 C225.55,664.02,225.46,664.02,225.46,663.82 C225.46,663.71,225.55,663.71,225.74,663.71 C225.76,663.71,225.95,663.71,226.12,663.69 C226.3,663.67,226.39,663.66,226.39,663.53 C226.39,663.49,226.38,663.46,226.35,663.34 L225.01,658.01 C224.91,657.62,224.9,657.54,224.11,657.54 C223.93,657.54,223.84,657.54,223.84,657.34 C223.84,657.23,223.96,657.23,223.98,657.23 C224.26,657.23,224.95,657.27,225.23,657.27 C225.51,657.27,226.22,657.23,226.5,657.23 C226.58,657.23,226.7,657.23,226.7,657.43 C226.7,657.54,226.61,657.54,226.42,657.54 C226.05,657.54,225.77,657.54,225.77,657.72 C225.77,657.78,225.79,657.83,225.8,657.89 L226.46,660.52 H227.64 L227.63,660.74 H226.52 L227.16,663.33 C227.22,663.57,227.25,663.67,227.44,663.7 C227.53,663.71,227.85,663.71,228.05,663.71 C228.76,663.71,229.86,663.71,229.86,662.73 C229.86,662.39,229.7,661.71,229.31,661.32 C229.05,661.06,228.53,660.74,227.63,660.74 L227.64,660.52 C228.55,660.52,228.73,659.97,228.73,659.62 C228.73,659.47,228.65,659.16,228.59,658.93 C228.52,658.66,228.43,658.29,228.43,658.09 C228.43,657.02,229.62,657.02,229.75,657.02 C230.6,657.02,230.94,658.02,230.94,658.16 C230.94,658.28,230.83,658.28,230.82,658.28 C230.74,658.28,230.71,658.21,230.7,658.14 C230.45,657.4,230.02,657.23,229.79,657.23 C229.46,657.23,229.39,657.45,229.39,657.84 C229.39,658.15,229.45,658.66,229.49,658.97 C229.51,659.11,229.53,659.3,229.53,659.44 C229.53,660.21,228.86,660.51,228.6,660.61 Z " /></g>    <g
       id="content"
       transform="matrix(4,0,0,-4,-774.40327,2965.5835)"
       xml:space="preserve"
       stroke="black"
       stroke-linecap="butt"
       stroke-linejoin="miter"
       stroke-miterlimit="10.433"
       stroke-dasharray="none"
       stroke-dashoffset="0"
       stroke-opacity="1"
       fill="none"
       fill-rule="evenodd"
       fill-opacity="1"
       font-style="normal"
       font-variant="normal"
       font-weight="normal"
       font-stretch="normal"
       font-size-adjust="none"
       letter-spacing="normal"
       word-spacing="normal"
       text-anchor="start"
       ns0:text="$S=\\{s\\}$"
       ns0:preamble=""
       style="font-style:normal;font-variant:normal;font-weight:normal;font-stretch:normal;letter-spacing:normal;word-spacing:normal;text-anchor:start;fill:none;stroke:#000000;stroke-linecap:butt;stroke-linejoin:miter;stroke-miterlimit:10.43299961;stroke-opacity:1;stroke-dasharray:none;stroke-dashoffset:0"><path
         d="M229.85,664.14 L229.85,664.14 L229.85,664.15 L229.85,664.15 L229.85,664.15 L229.85,664.16 L229.85,664.16 L229.85,664.16 L229.84,664.17 L229.84,664.17 L229.84,664.18 L229.84,664.18 L229.84,664.18 L229.84,664.19 L229.83,664.19 L229.83,664.2 L229.83,664.2 L229.82,664.2 L229.82,664.21 L229.82,664.21 L229.81,664.21 L229.81,664.22 L229.8,664.22 L229.8,664.22 L229.79,664.23 L229.79,664.23 L229.79,664.23 L229.78,664.23 L229.78,664.23 L229.78,664.23 L229.77,664.23 L229.77,664.23 L229.77,664.24 L229.76,664.24 L229.76,664.24 L229.76,664.24 L229.75,664.24 L229.75,664.24 L229.74,664.24 L229.74,664.24 C229.69,664.24,229.68,664.23,229.56,664.09 L229.08,663.52 C228.82,663.99,228.31,664.24,227.66,664.24 C226.4,664.24,225.2,663.1,225.2,661.89 C225.2,661.09,225.73,660.63,226.24,660.48 L227.3,660.21 C227.67,660.12,228.22,659.97,228.22,659.15 C228.22,658.26,227.4,657.32,226.43,657.32 C225.79,657.32,224.69,657.54,224.69,658.78 C224.69,659.01,224.74,659.25,224.74,659.31 C224.76,659.35,224.76,659.36,224.76,659.38 C224.76,659.48,224.7,659.49,224.65,659.49 C224.6,659.49,224.58,659.48,224.55,659.45 C224.51,659.41,223.95,657.15,223.95,657.12 C223.95,657.06,224,657.02,224.06,657.02 C224.11,657.02,224.12,657.03,224.24,657.16 L224.73,657.73 C225.15,657.16,225.83,657.02,226.41,657.02 C227.76,657.02,228.93,658.34,228.93,659.57 C228.93,660.26,228.6,660.59,228.45,660.73 C228.22,660.96,228.07,661,227.18,661.23 C226.96,661.29,226.61,661.39,226.52,661.41 C226.25,661.5,225.91,661.78,225.91,662.31 C225.91,663.12,226.71,663.96,227.65,663.96 C228.48,663.96,229.08,663.53,229.08,662.42 C229.08,662.1,229.04,661.92,229.04,661.86 C229.04,661.85,229.04,661.77,229.16,661.77 C229.26,661.77,229.27,661.79,229.31,661.96 Z "
         stroke-width="0"
         fill="black"
         id="path3366" /><path
         d="M239.72,660.48 L239.75,660.48 L239.78,660.48 L239.8,660.48 L239.82,660.49 L239.83,660.49 L239.85,660.49 L239.86,660.49 L239.88,660.49 L239.89,660.49 L239.9,660.5 L239.92,660.5 L239.93,660.5 L239.94,660.51 L239.96,660.51 L239.97,660.52 L239.98,660.52 L239.99,660.53 L240,660.54 L240.01,660.55 L240.02,660.56 L240.02,660.57 L240.03,660.57 L240.03,660.58 L240.03,660.58 L240.04,660.59 L240.04,660.6 L240.04,660.6 L240.05,660.61 L240.05,660.62 L240.05,660.62 L240.05,660.63 L240.05,660.64 L240.05,660.65 L240.05,660.66 L240.06,660.66 L240.06,660.67 L240.06,660.68 C240.06,660.88,239.87,660.88,239.73,660.88 H233.77 C233.63,660.88,233.44,660.88,233.44,660.68 C233.44,660.48,233.63,660.48,233.78,660.48 Z "
         stroke-width="0"
         fill="black"
         id="path3368" /><path
         d="M239.73,658.56 L239.74,658.56 L239.75,658.56 L239.78,658.56 L239.81,658.56 L239.82,658.56 L239.84,658.56 L239.85,658.56 L239.87,658.56 L239.88,658.56 L239.89,658.57 L239.91,658.57 L239.92,658.57 L239.93,658.58 L239.94,658.58 L239.96,658.59 L239.97,658.59 L239.98,658.6 L239.99,658.6 L240,658.61 L240.01,658.62 L240.02,658.63 L240.02,658.63 L240.02,658.64 L240.03,658.65 L240.03,658.65 L240.03,658.66 L240.04,658.66 L240.04,658.67 L240.04,658.68 L240.05,658.68 L240.05,658.69 L240.05,658.7 L240.05,658.7 L240.05,658.71 L240.05,658.72 L240.05,658.73 L240.06,658.74 L240.06,658.75 L240.06,658.76 C240.06,658.95,239.87,658.95,239.72,658.95 H233.78 C233.63,658.95,233.44,658.95,233.44,658.76 C233.44,658.56,233.63,658.56,233.77,658.56 Z "
         stroke-width="0"
         fill="black"
         id="path3370" /><path
         d="M246.21,663.36 L246.22,663.4 L246.22,663.44 L246.22,663.48 L246.23,663.52 L246.24,663.56 L246.25,663.61 L246.26,663.65 L246.27,663.69 L246.29,663.74 L246.31,663.78 L246.33,663.83 L246.35,663.87 L246.38,663.91 L246.41,663.96 L246.44,664 L246.48,664.04 L246.52,664.08 L246.56,664.12 L246.61,664.16 L246.66,664.19 L246.71,664.23 L246.77,664.26 L246.83,664.29 L246.89,664.32 L246.96,664.35 L247.03,664.37 L247.11,664.4 L247.19,664.42 L247.23,664.42 L247.27,664.43 L247.32,664.44 L247.36,664.45 L247.41,664.45 L247.46,664.46 L247.51,664.46 L247.56,664.47 C247.61,664.48,247.65,664.52,247.65,664.58 C247.65,664.68,247.57,664.68,247.46,664.68 C246.46,664.68,245.56,664.18,245.55,663.44 V661.18 C245.55,660.79,245.55,660.47,245.15,660.15 C244.8,659.86,244.42,659.84,244.21,659.83 C244.15,659.82,244.12,659.78,244.12,659.72 C244.12,659.62,244.18,659.62,244.27,659.61 C244.93,659.57,245.41,659.21,245.52,658.72 C245.55,658.62,245.55,658.6,245.55,658.24 V656.27 C245.55,655.85,245.55,655.54,246.03,655.16 C246.41,654.86,247.07,654.75,247.46,654.75 C247.57,654.75,247.65,654.75,247.65,654.86 C247.65,654.96,247.59,654.96,247.49,654.97 C246.86,655.01,246.37,655.33,246.24,655.83 C246.21,655.92,246.21,655.94,246.21,656.3 V658.39 C246.21,658.84,246.13,659.01,245.82,659.33 C245.61,659.54,245.32,659.64,245.04,659.72 C245.86,659.95,246.21,660.4,246.21,660.98 Z "
         stroke-width="0"
         fill="black"
         id="path3372" /><path
         d="M252.27,660.95 L252.24,660.95 L252.22,660.95 L252.19,660.94 L252.17,660.94 L252.15,660.93 L252.12,660.92 L252.1,660.92 L252.08,660.91 L252.06,660.9 L252.04,660.89 L252.02,660.87 L252,660.86 L251.98,660.85 L251.96,660.83 L251.94,660.82 L251.93,660.8 L251.91,660.79 L251.9,660.77 L251.88,660.76 L251.87,660.74 L251.86,660.72 L251.85,660.7 L251.84,660.68 L251.83,660.66 L251.82,660.64 L251.81,660.62 L251.81,660.6 L251.8,660.58 L251.8,660.56 L251.8,660.54 L251.79,660.52 L251.79,660.5 C251.79,660.36,251.88,660.22,252.1,660.22 C252.32,660.22,252.56,660.38,252.56,660.77 C252.56,661.22,252.13,661.63,251.38,661.63 C250.06,661.63,249.69,660.61,249.69,660.17 C249.69,659.4,250.43,659.25,250.72,659.19 C251.24,659.09,251.75,658.98,251.75,658.44 C251.75,658.18,251.52,657.34,250.33,657.34 C250.19,657.34,249.43,657.34,249.2,657.87 C249.57,657.82,249.82,658.12,249.82,658.4 C249.82,658.63,249.66,658.74,249.46,658.74 C249.2,658.74,248.9,658.54,248.9,658.09 C248.9,657.52,249.46,657.13,250.32,657.13 C251.93,657.13,252.32,658.33,252.32,658.78 C252.32,659.13,252.13,659.38,252.01,659.5 C251.74,659.78,251.45,659.83,251.02,659.92 C250.66,660,250.26,660.07,250.26,660.51 C250.26,660.8,250.5,661.41,251.38,661.41 C251.62,661.41,252.12,661.34,252.27,660.95 Z "
         stroke-width="0"
         fill="black"
         id="path3374" /><path
         d="M255.2,656.07 L255.2,656.04 L255.2,656 L255.19,655.96 L255.19,655.91 L255.18,655.87 L255.17,655.83 L255.16,655.79 L255.14,655.74 L255.12,655.7 L255.11,655.65 L255.08,655.61 L255.06,655.57 L255.03,655.52 L255,655.48 L254.97,655.44 L254.93,655.4 L254.89,655.36 L254.85,655.32 L254.81,655.28 L254.76,655.24 L254.7,655.21 L254.65,655.18 L254.59,655.15 L254.52,655.12 L254.45,655.09 L254.38,655.06 L254.31,655.04 L254.22,655.02 L254.18,655.01 L254.14,655 L254.1,655 L254.05,654.99 L254,654.98 L253.96,654.98 L253.91,654.97 L253.86,654.97 C253.81,654.96,253.77,654.92,253.77,654.86 C253.77,654.75,253.88,654.75,253.96,654.75 C254.93,654.75,255.86,655.24,255.87,655.99 V658.26 C255.87,658.65,255.87,658.96,256.26,659.29 C256.61,659.58,256.99,659.6,257.21,659.61 C257.26,659.62,257.3,659.66,257.3,659.72 C257.3,659.82,257.24,659.82,257.14,659.83 C256.48,659.87,256.01,660.22,255.9,660.71 C255.87,660.82,255.87,660.84,255.87,661.2 V663.16 C255.87,663.58,255.87,663.9,255.39,664.28 C254.99,664.59,254.3,664.68,253.96,664.68 C253.88,664.68,253.77,664.68,253.77,664.58 C253.77,664.48,253.83,664.48,253.93,664.47 C254.55,664.43,255.04,664.11,255.17,663.6 C255.2,663.51,255.2,663.49,255.2,663.14 V661.05 C255.2,660.59,255.28,660.42,255.6,660.11 C255.81,659.9,256.09,659.8,256.37,659.72 C255.56,659.49,255.2,659.03,255.2,658.46 Z "
         stroke-width="0"
         fill="black"
         id="path3376" /></g>    <g
       style="font-style:normal;font-variant:normal;font-weight:normal;font-stretch:normal;letter-spacing:normal;word-spacing:normal;text-anchor:start;fill:none;stroke:#000000;stroke-linecap:butt;stroke-linejoin:miter;stroke-miterlimit:10.43299961;stroke-opacity:1;stroke-dasharray:none;stroke-dashoffset:0"
       ns0:preamble=""
       ns0:text="$s$"
       text-anchor="start"
       word-spacing="normal"
       letter-spacing="normal"
       font-size-adjust="none"
       font-stretch="normal"
       font-weight="normal"
       font-variant="normal"
       font-style="normal"
       fill-opacity="1"
       fill-rule="evenodd"
       fill="none"
       stroke-opacity="1"
       stroke-dashoffset="0"
       stroke-dasharray="none"
       stroke-miterlimit="10.433"
       stroke-linejoin="miter"
       stroke-linecap="butt"
       stroke="black"
       xml:space="preserve"
       transform="matrix(4,0,0,-4,-708.07735,3127.1064)"
       id="g3767"><path
         id="path3769"
         fill="black"
         stroke-width="0"
         d="M227.32,660.95 L227.3,660.95 L227.27,660.95 L227.25,660.94 L227.22,660.94 L227.2,660.93 L227.17,660.92 L227.15,660.92 L227.13,660.91 L227.11,660.9 L227.09,660.89 L227.07,660.87 L227.05,660.86 L227.03,660.85 L227.01,660.83 L227,660.82 L226.98,660.8 L226.96,660.79 L226.95,660.77 L226.94,660.76 L226.92,660.74 L226.91,660.72 L226.9,660.7 L226.89,660.68 L226.88,660.66 L226.87,660.64 L226.87,660.62 L226.86,660.6 L226.85,660.58 L226.85,660.56 L226.85,660.54 L226.85,660.52 L226.85,660.5 C226.85,660.36,226.93,660.22,227.15,660.22 C227.37,660.22,227.61,660.38,227.61,660.77 C227.61,661.22,227.18,661.63,226.43,661.63 C225.11,661.63,224.74,660.61,224.74,660.17 C224.74,659.4,225.48,659.25,225.77,659.19 C226.29,659.09,226.8,658.98,226.8,658.44 C226.8,658.18,226.58,657.34,225.38,657.34 C225.24,657.34,224.48,657.34,224.25,657.87 C224.63,657.82,224.88,658.12,224.88,658.4 C224.88,658.63,224.71,658.74,224.51,658.74 C224.25,658.74,223.95,658.54,223.95,658.09 C223.95,657.52,224.52,657.13,225.37,657.13 C226.98,657.13,227.37,658.33,227.37,658.78 C227.37,659.13,227.18,659.38,227.06,659.5 C226.79,659.78,226.51,659.83,226.07,659.92 C225.71,660,225.31,660.07,225.31,660.51 C225.31,660.8,225.55,661.41,226.43,661.41 C226.68,661.41,227.17,661.34,227.32,660.95 Z " /></g>    <g
       id="g4155"
       transform="matrix(4,0,0,-4,-482.08209,2996.5851)"
       xml:space="preserve"
       stroke="black"
       stroke-linecap="butt"
       stroke-linejoin="miter"
       stroke-miterlimit="10.433"
       stroke-dasharray="none"
       stroke-dashoffset="0"
       stroke-opacity="1"
       fill="none"
       fill-rule="evenodd"
       fill-opacity="1"
       font-style="normal"
       font-variant="normal"
       font-weight="normal"
       font-stretch="normal"
       font-size-adjust="none"
       letter-spacing="normal"
       word-spacing="normal"
       text-anchor="start"
       ns0:text="$X(s)$"
       ns0:preamble=""
       style="font-style:normal;font-variant:normal;font-weight:normal;font-stretch:normal;letter-spacing:normal;word-spacing:normal;text-anchor:start;fill:none;stroke:#000000;stroke-linecap:butt;stroke-linejoin:miter;stroke-miterlimit:10.43299961;stroke-opacity:1;stroke-dasharray:none;stroke-dashoffset:0"><path
         d="M228.26,661.32 L227.42,663.29 C227.39,663.37,227.37,663.41,227.37,663.42 C227.37,663.48,227.54,663.67,227.96,663.71 C228.06,663.72,228.16,663.73,228.16,663.9 C228.16,664.02,228.04,664.02,228.01,664.02 C227.6,664.02,227.17,663.99,226.76,663.99 C226.51,663.99,225.89,664.02,225.64,664.02 C225.58,664.02,225.46,664.02,225.46,663.82 C225.46,663.71,225.56,663.71,225.69,663.71 C226.29,663.71,226.35,663.61,226.44,663.39 L227.61,660.62 L225.51,658.37 L225.38,658.26 C224.9,657.73,224.43,657.57,223.92,657.54 C223.79,657.53,223.7,657.53,223.7,657.34 C223.7,657.33,223.7,657.23,223.83,657.23 C224.13,657.23,224.46,657.27,224.76,657.27 C225.13,657.27,225.52,657.23,225.88,657.23 C225.94,657.23,226.06,657.23,226.06,657.43 C226.06,657.53,225.96,657.54,225.94,657.54 C225.85,657.55,225.54,657.57,225.54,657.85 C225.54,658.01,225.69,658.17,225.81,658.3 L226.82,659.37 L227.72,660.34 L228.73,657.97 C228.76,657.86,228.77,657.85,228.77,657.83 C228.77,657.75,228.59,657.58,228.2,657.54 C228.09,657.53,228,657.52,228,657.35 C228,657.23,228.11,657.23,228.15,657.23 C228.43,657.23,229.12,657.27,229.4,657.27 C229.65,657.27,230.26,657.23,230.51,657.23 C230.58,657.23,230.7,657.23,230.7,657.42 C230.7,657.54,230.6,657.54,230.52,657.54 C229.85,657.55,229.83,657.58,229.66,657.98 C229.27,658.9,228.61,660.45,228.38,661.05 C229.05,661.74,230.1,662.93,230.42,663.21 C230.71,663.44,231.08,663.68,231.68,663.71 C231.81,663.72,231.9,663.72,231.9,663.91 C231.9,663.92,231.9,664.02,231.77,664.02 C231.47,664.02,231.14,663.99,230.83,663.99 C230.47,663.99,230.09,664.02,229.73,664.02 C229.67,664.02,229.54,664.02,229.54,663.82 C229.54,663.75,229.59,663.72,229.66,663.71 C229.75,663.7,230.06,663.68,230.06,663.4 C230.06,663.27,229.95,663.14,229.87,663.05 Z "
         stroke-width="0"
         fill="black"
         id="path4157" /><path
         d="M235.76,654.85 L235.76,654.86 L235.76,654.86 L235.76,654.86 L235.76,654.87 L235.76,654.87 L235.76,654.87 L235.76,654.88 L235.76,654.88 L235.75,654.88 L235.75,654.89 L235.75,654.89 L235.75,654.9 L235.74,654.9 L235.74,654.91 L235.74,654.91 L235.73,654.92 L235.73,654.93 L235.72,654.93 L235.72,654.94 L235.71,654.94 L235.71,654.95 L235.71,654.95 L235.7,654.95 L235.7,654.96 L235.69,654.96 L235.69,654.97 L235.69,654.97 L235.68,654.98 L235.68,654.98 L235.67,654.99 L235.67,654.99 L235.66,655 L235.65,655.01 L235.65,655.01 L235.64,655.02 L235.64,655.03 L235.63,655.03 L235.62,655.04 L235.61,655.05 L235.61,655.05 L235.6,655.06 L235.59,655.07 C234.35,656.32,234.03,658.2,234.03,659.72 C234.03,661.45,234.41,663.17,235.63,664.42 C235.76,664.54,235.76,664.56,235.76,664.59 C235.76,664.66,235.72,664.68,235.66,664.68 C235.56,664.68,234.67,664.01,234.08,662.75 C233.57,661.66,233.45,660.55,233.45,659.72 C233.45,658.94,233.56,657.74,234.11,656.62 C234.71,655.4,235.56,654.75,235.66,654.75 C235.72,654.75,235.76,654.78,235.76,654.85 Z "
         stroke-width="0"
         fill="black"
         id="path4159" /><path
         d="M240.23,660.95 L240.21,660.95 L240.18,660.95 L240.16,660.94 L240.13,660.94 L240.11,660.93 L240.08,660.92 L240.06,660.92 L240.04,660.91 L240.02,660.9 L240,660.89 L239.98,660.87 L239.96,660.86 L239.94,660.85 L239.92,660.83 L239.91,660.82 L239.89,660.8 L239.87,660.79 L239.86,660.77 L239.85,660.76 L239.83,660.74 L239.82,660.72 L239.81,660.7 L239.8,660.68 L239.79,660.66 L239.78,660.64 L239.78,660.62 L239.77,660.6 L239.76,660.58 L239.76,660.56 L239.76,660.54 L239.76,660.52 L239.76,660.5 C239.76,660.36,239.84,660.22,240.06,660.22 C240.28,660.22,240.52,660.38,240.52,660.77 C240.52,661.22,240.09,661.63,239.34,661.63 C238.02,661.63,237.65,660.61,237.65,660.17 C237.65,659.4,238.39,659.25,238.68,659.19 C239.2,659.09,239.71,658.98,239.71,658.44 C239.71,658.18,239.49,657.34,238.29,657.34 C238.15,657.34,237.39,657.34,237.16,657.87 C237.54,657.82,237.79,658.12,237.79,658.4 C237.79,658.63,237.62,658.74,237.42,658.74 C237.16,658.74,236.86,658.54,236.86,658.09 C236.86,657.52,237.43,657.13,238.28,657.13 C239.89,657.13,240.28,658.33,240.28,658.78 C240.28,659.13,240.09,659.38,239.97,659.5 C239.71,659.78,239.42,659.83,238.98,659.92 C238.62,660,238.22,660.07,238.22,660.51 C238.22,660.8,238.46,661.41,239.34,661.41 C239.59,661.41,240.08,661.34,240.23,660.95 Z "
         stroke-width="0"
         fill="black"
         id="path4161" /><path
         d="M243.89,659.72 L243.89,659.79 L243.89,659.87 L243.88,659.95 L243.88,660.03 L243.87,660.2 L243.86,660.37 L243.85,660.55 L243.82,660.74 L243.8,660.94 L243.76,661.14 L243.72,661.34 L243.68,661.55 L243.63,661.76 L243.56,661.97 L243.49,662.18 L243.42,662.39 L243.37,662.5 L243.33,662.61 L243.28,662.71 L243.23,662.82 C242.63,664.04,241.78,664.68,241.68,664.68 C241.62,664.68,241.58,664.65,241.58,664.59 C241.58,664.56,241.58,664.54,241.77,664.36 C242.74,663.37,243.31,661.79,243.31,659.72 C243.31,658.02,242.94,656.27,241.71,655.02 C241.58,654.9,241.58,654.88,241.58,654.85 C241.58,654.79,241.62,654.75,241.68,654.75 C241.78,654.75,242.67,655.43,243.26,656.69 C243.77,657.78,243.89,658.88,243.89,659.72 Z "
         stroke-width="0"
         fill="black"
         id="path4163" /></g>    <g
       style="font-style:normal;font-variant:normal;font-weight:normal;font-stretch:normal;letter-spacing:normal;word-spacing:normal;text-anchor:start;fill:none;stroke:#000000;stroke-linecap:butt;stroke-linejoin:miter;stroke-miterlimit:10.43299961;stroke-opacity:1;stroke-dasharray:none;stroke-dashoffset:0"
       ns0:preamble=""
       ns0:text="$x$"
       text-anchor="start"
       word-spacing="normal"
       letter-spacing="normal"
       font-size-adjust="none"
       font-stretch="normal"
       font-weight="normal"
       font-variant="normal"
       font-style="normal"
       fill-opacity="1"
       fill-rule="evenodd"
       fill="none"
       stroke-opacity="1"
       stroke-dashoffset="0"
       stroke-dasharray="none"
       stroke-miterlimit="10.433"
       stroke-linejoin="miter"
       stroke-linecap="butt"
       stroke="black"
       xml:space="preserve"
       transform="matrix(4,0,0,-4,-214.61997,3131.4939)"
       id="g4550"><path
         id="path4552"
         fill="black"
         stroke-width="0"
         d="M226.76,660.23 L226.76,660.26 L226.77,660.29 L226.78,660.32 L226.79,660.36 L226.8,660.4 L226.81,660.44 L226.82,660.48 L226.84,660.53 L226.85,660.57 L226.87,660.62 L226.89,660.67 L226.91,660.72 L226.93,660.77 L226.96,660.82 L226.98,660.87 L227.01,660.92 L227.04,660.97 L227.07,661.01 L227.1,661.06 L227.14,661.1 L227.18,661.15 L227.22,661.19 L227.26,661.23 L227.3,661.26 L227.35,661.29 L227.4,661.32 L227.42,661.33 L227.45,661.35 L227.47,661.36 L227.5,661.37 L227.53,661.38 L227.56,661.38 L227.59,661.39 L227.61,661.4 L227.65,661.4 L227.68,661.4 L227.71,661.41 L227.74,661.41 C227.79,661.41,228.03,661.41,228.24,661.28 C227.96,661.23,227.76,660.98,227.76,660.74 C227.76,660.58,227.87,660.39,228.14,660.39 C228.36,660.39,228.68,660.57,228.68,660.97 C228.68,661.49,228.09,661.63,227.75,661.63 C227.17,661.63,226.82,661.1,226.71,660.87 C226.46,661.53,225.92,661.63,225.63,661.63 C224.6,661.63,224.03,660.34,224.03,660.1 C224.03,660,224.13,660,224.15,660 C224.23,660,224.26,660.02,224.28,660.11 C224.62,661.16,225.27,661.41,225.61,661.41 C225.8,661.41,226.15,661.32,226.15,660.74 C226.15,660.43,225.98,659.77,225.61,658.38 C225.45,657.76,225.1,657.34,224.67,657.34 C224.61,657.34,224.38,657.34,224.17,657.47 C224.42,657.52,224.64,657.73,224.64,658.01 C224.64,658.28,224.42,658.36,224.27,658.36 C223.97,658.36,223.72,658.1,223.72,657.78 C223.72,657.32,224.22,657.13,224.66,657.13 C225.31,657.13,225.67,657.82,225.7,657.88 C225.82,657.51,226.18,657.13,226.77,657.13 C227.8,657.13,228.37,658.41,228.37,658.66 C228.37,658.76,228.28,658.76,228.25,658.76 C228.16,658.76,228.14,658.72,228.12,658.65 C227.79,657.58,227.11,657.34,226.79,657.34 C226.41,657.34,226.25,657.66,226.25,658 C226.25,658.22,226.31,658.44,226.42,658.87 Z " /></g>  </g>
</svg>
